<svg width="560" height="667" viewBox="0 0 560 667" fill="none" xmlns="http://www.w3.org/2000/svg">
<g clip-path="url(#clip0_329_806)">
<path d="M287.096 138.217L287.961 235.479L283.36 254.635L263.898 243.409V138.217H287.096Z" fill="#D1D1D1"/>
<path d="M283.361 149.443V254.635H291.796L294.879 246.722V144.254L287.962 140.877L283.361 149.443Z" fill="#E0DEDC"/>
<path d="M323.428 120.971L340.525 121.297V226.489L291.795 254.635V149.443L302.22 131.935L323.428 120.971Z" fill="#F4EFE9"/>
<path d="M312.644 105.191H321.079L340.525 116.433V121.296L291.795 149.442H283.361L263.898 138.216V133.337L312.644 105.191Z" fill="white"/>
<path d="M277.65 133.453H285.547L291.126 130.222V125.654L285.547 122.439H277.65L272.071 125.654V130.222L277.65 133.453Z" fill="#574943"/>
<path d="M285.547 138.689L282.545 136.225L285.547 133.451L291.126 130.221V135.458L285.547 138.689Z" fill="#362C29"/>
<path d="M272.071 135.458V130.221L277.65 133.451L281.093 136.437L277.65 138.689L272.071 135.458Z" fill="#0A0808"/>
<path d="M277.651 133.453H285.547V138.691H277.651V133.453Z" fill="#211A1A"/>
<path d="M268.123 182.727L273.442 186.79L276.003 184.293L270.717 181.242L268.123 182.727Z" fill="#836E69"/>
<path d="M275.122 188.912L276.444 189.5L277.798 187.313L276.003 184.295L273.426 185.861L275.122 188.912Z" fill="#685750"/>
<path d="M273.426 195.748L275.139 205.489L277.798 203.955V187.312L275.122 188.912L273.426 195.748Z" fill="#544540"/>
<path d="M266.345 200.448L267.895 203.271L273.295 206.551L275.139 205.49L275.122 188.912L273.426 185.861L268.124 182.729L266.345 183.773V200.448Z" fill="#403531"/>
<path d="M268.123 156.752L273.442 160.815L276.003 158.319L270.717 155.268L268.123 156.752Z" fill="#836E69"/>
<path d="M275.122 162.936L276.444 163.523L277.798 161.337L276.003 158.318L273.426 159.885L275.122 162.936Z" fill="#685750"/>
<path d="M273.426 169.757L275.139 179.498L277.798 177.981V161.338L275.122 162.937L273.426 169.757Z" fill="#544540"/>
<path d="M266.345 174.472L267.895 177.294L273.295 180.558L275.139 179.497L275.122 162.936L273.426 159.885L268.124 156.752L266.345 157.796V174.472Z" fill="#403531"/>
<path d="M298.223 205.391L300.017 206.435L332.303 187.785L334.146 184.604V181.618L332.352 180.59L324.309 189.091L298.223 205.391Z" fill="#A39C95"/>
<path d="M298.191 202.374V205.376L298.223 205.392L330.525 186.743L332.353 183.577V180.591L332.304 180.559L300.018 199.208L298.191 202.374Z" fill="#211A1A"/>
<path d="M298.223 214.056L300.017 215.084L332.303 196.434L334.146 193.268V190.266L332.352 189.238L324.309 197.739L298.223 214.056Z" fill="#A39C95"/>
<path d="M298.191 211.038V214.024L298.223 214.056L330.525 195.407L332.353 192.225V189.239L332.304 189.223L300.018 207.856L298.191 211.038Z" fill="#211A1A"/>
<path d="M298.223 222.704L300.017 223.732L332.303 205.082L334.146 201.917V198.931L332.352 197.887L324.309 206.404L298.223 222.704Z" fill="#A39C95"/>
<path d="M298.191 219.684V222.67L298.223 222.703L330.525 204.053L332.353 200.888V197.885L332.304 197.869L300.018 216.519L298.191 219.684Z" fill="#211A1A"/>
<path d="M298.223 231.352L300.017 232.396L332.303 213.746L334.146 210.565V207.579L332.352 206.551L324.309 215.052L298.223 231.352Z" fill="#A39C95"/>
<path d="M298.191 228.349V231.335L298.223 231.351L330.525 212.702L332.353 209.536V206.55L332.304 206.518L300.018 225.167L298.191 228.349Z" fill="#211A1A"/>
<path d="M298.223 239.998L300.017 241.043L332.303 222.393L334.146 219.227V216.225L332.352 215.197L324.309 223.698L298.223 239.998Z" fill="#A39C95"/>
<path d="M298.191 236.997V239.983L298.223 239.999L330.525 221.349L332.353 218.184V215.198L332.304 215.182L300.018 233.815L298.191 236.997Z" fill="#211A1A"/>
<path d="M312.759 110.07L315.875 111.033L314.978 114.508L312.694 113.007L312.759 110.07Z" fill="#0A0808"/>
<path d="M315.174 106.628L318.404 106.562L320.884 107.966L320.933 110.087L318.551 111.441L315.06 111.474L312.759 110.071L312.71 107.966L315.174 106.628Z" fill="#574943"/>
<path d="M318.551 111.441L319.709 112.274L318.502 114.542L314.978 114.509L315.059 111.474L318.551 111.441Z" fill="#211A1A"/>
<path d="M318.551 111.442L320.933 110.088L320.867 113.123L318.502 114.542L318.551 111.442Z" fill="#362C29"/>
<path d="M313.493 80.6855L316.022 81.5177L316.821 105.193L315.467 110.806L313.461 109.566L313.493 80.6855Z" fill="#0A0808"/>
<path d="M315.418 77.9766H318.257L320.361 79.135L320.28 80.7667L318.24 81.8109L315.418 82.0067L313.493 80.6851L313.46 79.135L315.418 77.9766Z" fill="#574943"/>
<path d="M318.24 81.8105L319.301 82.5774L319.268 101.243L318.257 110.805H315.467L315.418 82.0063L318.24 81.8105Z" fill="#211A1A"/>
<path d="M318.24 81.8099L320.279 80.7656V109.646L318.256 110.804L318.24 81.8099Z" fill="#362C29"/>
<path d="M314.537 76.0502H319.089L322.319 74.1901V71.5632L319.089 69.7031H314.537L311.324 71.5632V74.1901L314.537 76.0502Z" fill="#574943"/>
<path d="M319.089 87.6362L317.36 86.2166L319.089 76.0515L322.319 74.1914V85.7761L319.089 87.6362Z" fill="#362C29"/>
<path d="M311.323 85.7761V74.1914L314.537 76.0515L316.527 86.3472L314.537 87.6362L311.323 85.7761Z" fill="#0A0808"/>
<path d="M314.537 76.0508H319.089V87.6355H314.537V76.0508Z" fill="#211A1A"/>
<path d="M298.174 189.466L303.15 192.338L304.798 157.502L298.174 156.572V189.466Z" fill="#0A0808"/>
<path d="M303.15 159.461L322.352 159.477L339.123 138.69L334.147 135.818L298.174 156.573L303.15 159.461Z" fill="#574943"/>
<path d="M303.15 192.338L339.123 171.567V138.689L303.15 159.46V192.338Z" fill="#211A1A"/>
<path d="M306.282 183.772V185.959L335.99 168.794V144.531L334.114 145.624L326.756 163.458L306.282 183.772Z" fill="#5E4439"/>
<path d="M306.282 161.68V183.773L334.114 167.701V145.625L306.282 161.68Z" fill="#736656"/>
<path d="M317.653 163.882L331.667 155.789V149.1L317.653 157.193V163.882Z" fill="#544540"/>
<path d="M309.773 175.125L331.667 162.48V159.135L309.773 171.78V175.125Z" fill="#544540"/>
<path d="M331.667 166.918L326.969 169.627V167.962L331.667 165.254V166.918Z" fill="#544540"/>
<path d="M325.925 170.229L321.226 172.938V171.274L325.925 168.549V170.229Z" fill="#544540"/>
<path d="M420.97 226.243L445.327 217.122L536.36 163.588L549.118 152.248L544.077 149.344L415.929 223.323L418.458 226.945L420.97 226.243Z" fill="#362C29"/>
<path d="M420.97 327.079L423.972 304.578L424.935 248.009L420.97 226.243L415.929 223.322V324.174L420.97 327.079Z" fill="#0A0808"/>
<path d="M433.94 226.244L434.43 322.658L431.852 333.362L420.971 327.08V226.244H433.94Z" fill="#D1D1D1"/>
<path d="M431.852 232.526V333.361H436.567L438.296 328.939V229.621L434.429 227.729L431.852 232.526Z" fill="#E0DEDC"/>
<path d="M550.44 161.076L560 161.256V262.091L436.567 333.362V232.526L442.408 222.736L550.44 161.076Z" fill="#F4EFE9"/>
<path d="M494.939 221.316L517.257 208.442V197.543L494.939 210.433V221.316Z" fill="#D8D1C7"/>
<path d="M496.538 215.949L505.886 210.548V205.996L496.538 211.397V215.949Z" fill="#FA5C52"/>
<path d="M549.118 152.248L560 158.53V161.255L436.567 232.525H431.852L420.971 226.243L549.118 152.248Z" fill="white"/>
<path d="M439.634 217.906L442.244 216.389H445.948L448.574 217.906V220.044L445.948 221.561H442.244L439.634 220.044V217.906Z" fill="#574943"/>
<path d="M442.244 221.561H445.947V222.801H442.244V221.561Z" fill="#211A1A"/>
<path d="M439.634 221.316L442.244 222.817V221.56L439.634 220.043V221.316Z" fill="#0A0808"/>
<path d="M448.574 221.316L445.948 222.817V221.56L448.574 220.043V221.316Z" fill="#362C29"/>
<path d="M440.564 216.601L442.62 215.41H445.556L447.645 216.601V218.314L445.556 219.489H442.62L440.564 218.314V216.601Z" fill="#CFDB77"/>
<path d="M442.619 219.488H445.556V220.891H442.619V219.488Z" fill="#87A15F"/>
<path d="M440.564 219.701L442.619 220.892V219.489L440.564 218.314V219.701Z" fill="#79995A"/>
<path d="M447.645 219.701L445.556 220.892V219.489L447.645 218.314V219.701Z" fill="#9FB366"/>
<path d="M450.01 211.902L452.62 210.385H456.324L458.95 211.902V214.056L456.324 215.557H452.62L450.01 214.056V211.902Z" fill="#574943"/>
<path d="M452.62 215.557H456.323V216.813H452.62V215.557Z" fill="#211A1A"/>
<path d="M450.01 215.327L452.62 216.812V215.556L450.01 214.055V215.327Z" fill="#0A0808"/>
<path d="M458.95 215.327L456.324 216.812V215.556L458.95 214.055V215.327Z" fill="#362C29"/>
<path d="M450.924 210.613L453.012 209.422H455.948L458.004 210.613V212.31L455.948 213.501H453.012L450.924 212.31V210.613Z" fill="#FA5C52"/>
<path d="M453.012 213.5H455.948V214.887H453.012V213.5Z" fill="#AB281F"/>
<path d="M450.924 213.697L453.012 214.889V213.502L450.924 212.311V213.697Z" fill="#8A1C14"/>
<path d="M458.004 213.697L455.948 214.889V213.502L458.004 212.311V213.697Z" fill="#C84030"/>
<path d="M446.91 315.43V318.367L486.7 295.377V215.23L484.172 216.683L474.318 288.23L446.91 315.43Z" fill="#5E4439"/>
<path d="M446.91 238.219V315.429L484.172 293.907V216.682L446.91 238.219Z" fill="#736656"/>
<path d="M460.745 245.987L481.089 234.239V224.547L460.745 236.278V245.987Z" fill="#544540"/>
<path d="M460.745 260.558L481.089 248.81V239.102L460.745 250.849V260.558Z" fill="#544540"/>
<path d="M460.745 275.128L481.089 263.38V253.672L460.745 265.42V275.128Z" fill="#544540"/>
<path d="M460.745 304.252L481.089 292.521V282.812L460.745 294.56V304.252Z" fill="#544540"/>
<path d="M449.309 291.444L481.089 273.105V268.242L449.309 286.598V291.444Z" fill="#544540"/>
<path d="M481.089 279.533L474.253 283.465V281.034L481.089 277.102V279.533Z" fill="#544540"/>
<path d="M472.769 284.33L465.933 288.278V285.847L472.769 281.898V284.33Z" fill="#544540"/>
<path d="M464.448 289.144L457.629 293.076V290.645L464.448 286.713V289.144Z" fill="#544540"/>
<path d="M456.128 291.51V293.941L449.309 297.873V295.442L456.128 291.51Z" fill="#544540"/>
<path d="M542.071 223.014L542.609 218.902L540.472 218.314V222.084L542.071 223.014Z" fill="#403531"/>
<path d="M543.768 217.236L543.131 216.47L541.549 216.404L540.472 218.313L542.12 219.211L543.768 217.236Z" fill="#544540"/>
<path d="M547.421 216.144L552.104 212.212L550.456 211.266L541.548 216.405L543.229 217.352L547.421 216.144Z" fill="#836E69"/>
<path d="M552.137 218.493L553.165 216.78L553.246 212.864L552.104 212.211L543.229 217.351L542.12 219.211L542.071 223.012L543.197 223.649L552.137 218.493Z" fill="#685750"/>
<path d="M526.866 231.791L527.404 227.679L525.267 227.092V230.877L526.866 231.791Z" fill="#403531"/>
<path d="M528.562 226.016L527.926 225.249L526.344 225.184L525.267 227.093L526.915 227.99L528.562 226.016Z" fill="#544540"/>
<path d="M532.201 224.922L536.899 220.989L535.252 220.043L526.344 225.183L528.025 226.129L532.201 224.922Z" fill="#836E69"/>
<path d="M536.932 227.272L537.959 225.559L538.041 221.643L536.899 220.99L528.024 226.13L526.915 227.99L526.866 231.792L527.991 232.428L536.932 227.272Z" fill="#685750"/>
<path d="M511.661 240.57L512.199 236.458L510.062 235.871L510.078 239.64L511.661 240.57Z" fill="#403531"/>
<path d="M513.374 234.794L512.721 234.027L511.139 233.979L510.062 235.871L511.71 236.769L513.374 234.794Z" fill="#544540"/>
<path d="M517.012 233.717L521.694 229.769L520.063 228.822L511.139 233.978L512.819 234.908L517.012 233.717Z" fill="#836E69"/>
<path d="M521.727 236.049L522.754 234.336L522.836 230.42L521.694 229.768L512.819 234.907L511.71 236.767L511.661 240.569L512.786 241.205L521.727 236.049Z" fill="#685750"/>
<path d="M496.473 249.348L496.995 245.236L494.874 244.648V248.418L496.473 249.348Z" fill="#403531"/>
<path d="M498.169 243.572L497.533 242.805L495.934 242.74L494.873 244.649L496.505 245.547L498.169 243.572Z" fill="#544540"/>
<path d="M501.807 242.478L506.489 238.546L504.858 237.6L495.934 242.739L497.631 243.686L501.807 242.478Z" fill="#836E69"/>
<path d="M506.522 244.829L507.55 243.115L507.632 239.2L506.49 238.547L497.631 243.687L496.506 245.547L496.473 249.348L497.582 249.985L506.522 244.829Z" fill="#685750"/>
<path d="M542.071 236.752L542.609 232.64L540.472 232.053V235.822L542.071 236.752Z" fill="#403531"/>
<path d="M543.768 230.975L543.131 230.208L541.549 230.143L540.472 232.052L542.12 232.949L543.768 230.975Z" fill="#544540"/>
<path d="M547.421 229.883L552.104 225.95L550.456 225.004L541.548 230.144L543.229 231.09L547.421 229.883Z" fill="#836E69"/>
<path d="M552.137 232.231L553.165 230.518L553.246 226.602L552.104 225.949L543.229 231.089L542.12 232.949L542.071 236.751L543.197 237.387L552.137 232.231Z" fill="#685750"/>
<path d="M526.866 245.529L527.404 241.434L525.267 240.83V244.599L526.866 245.529Z" fill="#403531"/>
<path d="M528.562 239.753L527.926 238.986L526.344 238.938L525.267 240.83L526.915 241.728L528.562 239.753Z" fill="#544540"/>
<path d="M532.201 238.66L536.899 234.728L535.252 233.781L526.344 238.937L528.025 239.867L532.201 238.66Z" fill="#836E69"/>
<path d="M536.932 241.01L537.959 239.297L538.041 235.381L536.899 234.729L528.024 239.868L526.915 241.728L526.866 245.53L527.991 246.166L536.932 241.01Z" fill="#685750"/>
<path d="M511.661 254.309L512.199 250.197L510.062 249.609L510.078 253.378L511.661 254.309Z" fill="#403531"/>
<path d="M513.374 248.531L512.721 247.764L511.139 247.699L510.062 249.608L511.71 250.506L513.374 248.531Z" fill="#544540"/>
<path d="M517.012 247.439L521.694 243.507L520.063 242.561L511.139 247.7L512.819 248.647L517.012 247.439Z" fill="#836E69"/>
<path d="M521.727 249.788L522.754 248.074L522.836 244.159L521.694 243.506L512.819 248.646L511.71 250.506L511.661 254.307L512.786 254.944L521.727 249.788Z" fill="#685750"/>
<path d="M496.473 263.086L496.995 258.974L494.874 258.387V262.156L496.473 263.086Z" fill="#403531"/>
<path d="M498.169 257.31L497.533 256.543L495.934 256.494L494.873 258.387L496.505 259.284L498.169 257.31Z" fill="#544540"/>
<path d="M501.807 256.217L506.489 252.284L504.858 251.338L495.934 256.494L497.631 257.424L501.807 256.217Z" fill="#836E69"/>
<path d="M506.522 258.567L507.55 256.854L507.632 252.938L506.49 252.285L497.631 257.425L496.506 259.285L496.473 263.087L497.582 263.723L506.522 258.567Z" fill="#685750"/>
<path d="M542.071 250.49L542.609 246.395L540.472 245.791V249.56L542.071 250.49Z" fill="#403531"/>
<path d="M543.768 244.714L543.131 243.947L541.549 243.898L540.472 245.791L542.12 246.689L543.768 244.714Z" fill="#544540"/>
<path d="M547.421 243.621L552.104 239.689L550.456 238.742L541.548 243.898L543.229 244.828L547.421 243.621Z" fill="#836E69"/>
<path d="M552.137 245.971L553.165 244.258L553.246 240.358L552.104 239.689L543.229 244.829L542.12 246.689L542.071 250.491L543.197 251.127L552.137 245.971Z" fill="#685750"/>
<path d="M526.866 259.267L527.404 255.156L525.267 254.568V258.354L526.866 259.267Z" fill="#403531"/>
<path d="M528.562 253.492L527.926 252.725L526.344 252.676L525.267 254.568L526.915 255.466L528.562 253.492Z" fill="#544540"/>
<path d="M532.201 252.414L536.899 248.466L535.252 247.52L526.344 252.676L528.025 253.606L532.201 252.414Z" fill="#836E69"/>
<path d="M536.932 254.749L537.959 253.035L538.041 249.119L536.899 248.467L528.024 253.606L526.915 255.467L526.866 259.268L527.991 259.905L536.932 254.749Z" fill="#685750"/>
<path d="M511.661 268.047L512.199 263.951L510.062 263.348L510.078 267.133L511.661 268.047Z" fill="#403531"/>
<path d="M513.374 262.271L512.721 261.504L511.139 261.455L510.062 263.348L511.71 264.245L513.374 262.271Z" fill="#544540"/>
<path d="M517.012 261.177L521.694 257.245L520.063 256.299L511.139 261.455L512.819 262.385L517.012 261.177Z" fill="#836E69"/>
<path d="M521.727 263.526L522.754 261.813L522.836 257.913L521.694 257.244L512.819 262.384L511.71 264.244L511.661 268.046L512.786 268.698L521.727 263.526Z" fill="#685750"/>
<path d="M496.473 276.824L496.995 272.729L494.874 272.125V275.894L496.473 276.824Z" fill="#403531"/>
<path d="M498.169 271.048L497.533 270.281L495.934 270.232L494.873 272.125L496.505 273.023L498.169 271.048Z" fill="#544540"/>
<path d="M501.807 269.955L506.489 266.023L504.858 265.076L495.934 270.232L497.631 271.162L501.807 269.955Z" fill="#836E69"/>
<path d="M506.522 272.305L507.55 270.592L507.632 266.676L506.49 266.023L497.631 271.163L496.506 273.023L496.473 276.825L497.582 277.461L506.522 272.305Z" fill="#685750"/>
<path d="M542.071 264.228L542.609 260.133L540.472 259.529V263.315L542.071 264.228Z" fill="#403531"/>
<path d="M543.768 258.469L543.131 257.686L541.549 257.637L540.472 259.529L542.12 260.427L543.768 258.469Z" fill="#544540"/>
<path d="M547.421 257.375L552.104 253.427L550.456 252.48L541.548 257.636L543.229 258.566L547.421 257.375Z" fill="#836E69"/>
<path d="M552.137 259.71L553.165 257.996L553.246 254.097L552.104 253.428L543.229 258.567L542.12 260.427L542.071 264.229L543.197 264.866L552.137 259.71Z" fill="#685750"/>
<path d="M526.866 273.008L527.404 268.912L525.267 268.309V272.094L526.866 273.008Z" fill="#403531"/>
<path d="M528.562 267.23L527.926 266.463L526.344 266.414L525.267 268.307L526.915 269.204L528.562 267.23Z" fill="#544540"/>
<path d="M532.201 266.155L536.899 262.206L535.252 261.26L526.344 266.416L528.025 267.346L532.201 266.155Z" fill="#836E69"/>
<path d="M536.932 268.487L537.959 266.774L538.041 262.874L536.899 262.205L528.024 267.345L526.915 269.205L526.866 273.007L527.991 273.659L536.932 268.487Z" fill="#685750"/>
<path d="M511.661 281.785L512.199 277.69L510.062 277.086L510.078 280.871L511.661 281.785Z" fill="#403531"/>
<path d="M513.374 276.009L512.721 275.242L511.139 275.193L510.062 277.086L511.71 277.983L513.374 276.009Z" fill="#544540"/>
<path d="M517.012 274.932L521.694 270.983L520.063 270.037L511.139 275.193L512.819 276.123L517.012 274.932Z" fill="#836E69"/>
<path d="M521.727 277.266L522.754 275.553L522.836 271.653L521.694 270.984L512.819 276.124L511.71 277.984L511.661 281.786L512.786 282.422L521.727 277.266Z" fill="#685750"/>
<path d="M496.473 290.562L496.995 286.467L494.874 285.863V289.649L496.473 290.562Z" fill="#403531"/>
<path d="M498.169 284.787L497.533 284.02L495.934 283.971L494.873 285.863L496.505 286.761L498.169 284.787Z" fill="#544540"/>
<path d="M501.807 283.711L506.489 279.763L504.858 278.816L495.934 283.972L497.631 284.902L501.807 283.711Z" fill="#836E69"/>
<path d="M506.522 286.044L507.55 284.33L507.632 280.431L506.49 279.762L497.631 284.901L496.506 286.761L496.473 290.563L497.582 291.216L506.522 286.044Z" fill="#685750"/>
<path d="M530.439 191.082L531.451 191.669L549.51 181.243L550.538 179.465V177.784L549.527 177.213L545.04 181.961L530.439 191.082Z" fill="#A39C95"/>
<path d="M530.422 189.402V191.083H530.439L548.499 180.656L549.526 178.878V177.214L549.51 177.197L531.45 187.623L530.422 189.402Z" fill="#211A1A"/>
<path d="M530.439 198.375L531.451 198.946L549.51 188.52L550.538 186.741V185.077L549.527 184.506L545.04 189.254L530.439 198.375Z" fill="#A39C95"/>
<path d="M530.422 196.696V198.36L530.439 198.376L548.499 187.934L549.526 186.172V184.507L549.51 184.475L531.45 194.917L530.422 196.696Z" fill="#211A1A"/>
<path d="M530.439 205.652L531.451 206.24L549.51 195.797L550.538 194.019V192.354L549.527 191.783L545.04 196.531L530.439 205.652Z" fill="#A39C95"/>
<path d="M530.422 203.972V205.637L530.439 205.653L548.499 195.227L549.526 193.448V191.784L549.51 191.768L531.45 202.194L530.422 203.972Z" fill="#211A1A"/>
<path d="M530.439 212.93L531.451 213.517L549.51 203.091L550.538 201.312V199.648L549.527 199.061L545.04 203.825L530.439 212.93Z" fill="#A39C95"/>
<path d="M530.422 211.25V212.93H530.439L548.499 202.504L549.526 200.742V199.061L549.51 199.045L531.45 209.487L530.422 211.25Z" fill="#211A1A"/>
<path d="M37.082 241.63L31.7636 243.865L11.583 277.82L3.37696 275.731L-7.96451e-05 266.056L15.7268 238.84L37.082 241.63Z" fill="#211A1A"/>
<path d="M23.8348 243.524L33.8843 244.258L46.0547 230.683L37.9465 226L15.7267 238.841L23.8348 243.524Z" fill="#574943"/>
<path d="M8.10798 296.422L18.7285 280.529L8.10798 270.739L-0.000161661 266.057V291.739L8.10798 296.422Z" fill="#0A0808"/>
<path d="M46.0551 230.682L61.7656 239.754V265.436L46.0551 292.652L23.8352 305.476L8.10831 296.421V270.738L23.8352 243.523L46.0551 230.682Z" fill="#362C29"/>
<path d="M72.0598 283.612L66.9209 292.521V300.907L72.0762 303.893L79.3359 299.684L84.4749 290.775L84.4912 282.372L79.3359 279.402L72.0598 283.612Z" fill="#F4EFE9"/>
<path d="M26.1518 268.961L56.8714 282.194L66.9209 292.522V300.909L26.1681 277.348L26.1518 268.961Z" fill="#D1D1D1"/>
<path d="M38.5832 255.842L79.3359 279.403L72.0598 283.612L55.7946 279.403L31.2908 260.051L38.5832 255.842Z" fill="white"/>
<path d="M31.3049 260.034L72.0674 283.6L66.9238 292.499L26.1613 268.933L31.3049 260.034Z" fill="#E0DEDC"/>
<path d="M75.6648 295.882L80.8037 304.79V313.193L75.6484 316.163L68.3887 311.953L63.2497 303.044L63.2334 294.658L68.3887 291.672L75.6648 295.882Z" fill="#403531"/>
<path d="M66.5614 298.15L66.5777 303.388L69.759 308.919L74.278 311.53L77.4756 309.686V309.343L70.0526 296.47L69.759 296.307L66.5614 298.15Z" fill="#836E69"/>
<path d="M70.0526 296.471L70.0689 301.366L73.2665 306.897L77.4756 309.344V304.466L74.278 298.935L70.0526 296.471Z" fill="#544540"/>
<path d="M105.487 290.547L90.8535 294.463L80.804 304.791V313.194L105.471 298.934L105.487 290.547Z" fill="#544540"/>
<path d="M93.0562 277.428L68.3892 291.672L75.6653 295.882L91.9305 291.672L100.349 281.637L93.0562 277.428Z" fill="#836E69"/>
<path d="M100.364 281.609L105.501 290.512L80.8302 304.752L75.6928 295.849L100.364 281.609Z" fill="#685750"/>
<path d="M79.3356 259.268H89.6298L96.8896 255.058V249.119L89.6298 244.926H79.3356L72.0595 249.119V255.058L79.3356 259.268Z" fill="white"/>
<path d="M89.6298 293.761L85.6981 273.137L89.6298 259.268L96.8896 255.059V289.552L89.6298 293.761Z" fill="#F4EFE9"/>
<path d="M72.0598 289.552V255.059L79.3359 259.268L83.8223 275.454L79.3359 293.761L72.0598 289.552Z" fill="#D1D1D1"/>
<path d="M79.352 259.268H89.6299V293.761H79.352V259.268Z" fill="#E0DEDC"/>
<path d="M148.492 275.422L151.461 284.428L144.772 303.519L56.4962 252.546V226.619L69.2213 230.731L148.492 275.422Z" fill="#D1D1D1"/>
<path d="M184.546 234.613L192.377 239.133V276.024L184.546 289.583L152.603 308.037L144.772 303.518V266.626L152.603 253.067L184.546 234.613Z" fill="#F4EFE9"/>
<path d="M157.84 293.272V296.813L155.67 300.582L152.603 302.36L150.417 301.104V297.547L152.587 293.778L155.67 292.016L157.84 293.272Z" fill="#362C29"/>
<path d="M151.313 293.02L152.585 293.754L150.415 297.513L149.144 296.778L151.313 293.02Z" fill="#211A1A"/>
<path d="M154.365 291.266L151.314 293.044L152.587 293.778L155.67 292.016L154.365 291.266Z" fill="#574943"/>
<path d="M149.128 300.353L149.144 296.812L150.417 297.547V301.104L149.128 300.353Z" fill="#0A0808"/>
<path d="M158.623 294.968L158.607 297.774L156.894 300.76L154.463 302.164L152.734 301.168V298.362L154.463 295.376L156.894 293.973L158.623 294.968Z" fill="#FA5C52"/>
<path d="M153.06 294.561L151.331 297.546L152.734 298.362L154.463 295.376L153.06 294.561Z" fill="#AB281F"/>
<path d="M155.474 293.158L153.06 294.561L154.463 295.377L156.894 293.974L155.474 293.158Z" fill="#C84030"/>
<path d="M151.33 300.353V297.547L152.733 298.363V301.169L151.33 300.353Z" fill="#8A1C14"/>
<path d="M172.767 262.433L183.11 270.575L174.872 284.428L164.039 279.109L157.628 272.419L164.039 261.291L172.767 262.433Z" fill="#211A1A"/>
<path d="M179.864 270.429L183.975 270.739L188.935 265.192L173.11 256.055L164.039 261.292L179.864 270.429Z" fill="#574943"/>
<path d="M173.452 292.032L177.792 285.538L173.452 281.557L157.628 272.42V282.895L173.452 292.032Z" fill="#0A0808"/>
<path d="M188.935 265.191L195.362 268.895V279.37L188.935 290.498L179.864 295.736L173.452 292.032V281.557L179.864 270.429L188.935 265.191Z" fill="#362C29"/>
<path d="M177.449 289.421L181.12 291.542L187.694 287.74L192.344 279.68V272.076L188.673 269.955L177.449 289.421Z" fill="#0A0808"/>
<path d="M176.47 281.246V288.85L177.449 289.421L184.007 285.603L188.673 277.542V269.955L187.694 269.4L181.119 273.186L176.47 281.246Z" fill="#836E69"/>
<path d="M59.3833 215.133L146.941 266.203L141.998 282.063L53.706 231.09V215.916L59.3833 215.133Z" fill="#E0DEDC"/>
<path d="M53.7066 215.915L141.999 266.904L158.509 247.781L63.1688 199.533L53.7066 215.915Z" fill="#F4EFE9"/>
<path d="M151.461 250.506L174.676 245.97L185.704 230.73L97.4119 179.758L63.1684 199.533L151.461 250.506Z" fill="white"/>
<path d="M146.942 266.203L158.509 272.387L158.215 277.853L156.747 290.596L141.999 282.063V266.905L146.942 266.203Z" fill="#0A0808"/>
<path d="M195.346 238.351L208.104 245.285L208.609 248.761L207.141 261.488L192.377 252.97V237.812L195.346 238.351Z" fill="#0A0808"/>
<path d="M141.999 266.904L156.747 275.421L159.357 273.039L167.922 258.485L151.461 250.506L141.999 266.904Z" fill="#211A1A"/>
<path d="M193.535 245.171L200.469 239.264L185.704 230.73L151.461 250.506L166.209 259.039L173.355 256.723L193.535 245.171Z" fill="#574943"/>
<path d="M166.209 259.039L200.468 239.264L209.931 244.713V259.888L207.141 261.487V247.65L199.31 243.131L167.367 261.585L159.536 275.144V288.98L156.747 290.595V275.421L166.209 259.039Z" fill="#362C29"/>
<path opacity="0.3" d="M459.929 524.182L371.718 473.242H362.974L155.066 593.005V598.063L243.293 649.003H252.07L295.368 624.137L369.711 667L452.277 619.34L377.934 576.411L459.929 529.257V524.182Z" fill="black"/>
<path d="M454.316 532.389L448.704 535.636L428.344 463.174L445.393 417.619L454.316 416.656V532.389Z" fill="white"/>
<path d="M448.705 535.637L351.75 479.623V363.906L448.705 419.904V535.637Z" fill="#D1D1D1"/>
<path d="M367.003 516.318L315.973 486.818V432.076L367.003 461.511L374.736 479.655L367.003 516.318Z" fill="#D1D1D1"/>
<path d="M443.908 417.131L367.003 461.512V516.319L370.25 518.162L440.678 477.534L443.908 471.922V417.131Z" fill="white"/>
<path opacity="0.3" d="M440.857 476.375L370.576 517.003V491.599L440.857 451.02V476.375Z" fill="black"/>
<path d="M441.869 475.053L371.62 515.616V490.227L441.869 449.648V475.053Z" fill="white"/>
<path d="M401.443 494.797L400.578 494.242V493.785L402.128 493.916L401.443 494.797Z" fill="#403531"/>
<path d="M401.443 494.322L400.578 493.784L401.883 491.467L412.438 486.393L401.443 494.322Z" fill="#544540"/>
<path d="M402.797 491.956L401.883 491.467L411.541 485.936L412.438 486.392L402.797 491.956Z" fill="#836E69"/>
<path d="M413.76 487.176L412.438 486.393L402.797 491.956L401.443 494.322V494.796L402.797 495.562L412.438 489.966L413.76 487.665V487.176Z" fill="#685750"/>
<path d="M371.62 515.617L370.25 514.85V489.494L371.62 490.228V515.617Z" fill="#D1D1D1"/>
<path d="M371.62 490.228L370.25 489.494L440.548 448.98L441.869 449.649L371.62 490.228Z" fill="#A39C95"/>
<path d="M441.869 448.556L371.62 489.118V463.746L441.869 423.184V448.556Z" fill="white"/>
<path d="M401.443 467.776L400.578 467.286V466.797L402.128 466.96L401.443 467.776Z" fill="#403531"/>
<path d="M401.443 467.353L400.578 466.798L401.883 464.481L412.438 459.439L401.443 467.353Z" fill="#544540"/>
<path d="M402.797 464.986L401.883 464.481L411.541 458.949L412.438 459.439L402.797 464.986Z" fill="#836E69"/>
<path d="M413.76 460.223L412.438 459.439L402.797 464.987L401.443 467.353V467.777L402.797 468.577L412.438 462.996L413.76 460.712V460.223Z" fill="#685750"/>
<path d="M371.62 489.119L370.25 488.352V462.996L371.62 463.747V489.119Z" fill="#D1D1D1"/>
<path d="M371.62 463.747L370.25 462.996L440.548 422.482L441.869 423.184L371.62 463.747Z" fill="white"/>
<path d="M318.453 565.349L323.412 567.34V569.151L318.257 573.214L312.792 570.505L305.613 564.174L297.146 560.65L298.615 549L305.499 549.571L318.453 565.349Z" fill="#575757"/>
<path d="M321.601 555.917L322.074 562.248L323.412 567.338L318.257 571.401L312.792 568.693L305.613 562.362L297.146 558.837L298.615 547.188L305.499 547.742L321.601 555.917Z" fill="black"/>
<path d="M328.388 536.452L322.71 556.913H310.116L304.52 547.253L309.545 526.254L328.388 536.452Z" fill="#0A0808"/>
<path d="M282.252 563.357L274.861 564.059L262.136 564.859V566.555L263.605 575.366L282.252 582.513L288.255 586.804L296.2 587.571L299.806 582.953V581.24L282.252 563.357Z" fill="#575757"/>
<path d="M282.252 561.694L274.861 562.347L266.101 561.4L262.136 564.859L263.605 573.67L282.252 580.801L288.255 585.092L296.2 585.859L299.806 581.241L299.235 571.402L282.252 561.694Z" fill="black"/>
<path d="M278.972 509.611L280.554 544.871L279.885 561.693L287.325 571.402H300.702L303.149 531.116L278.972 509.611Z" fill="#211A1A"/>
<path d="M361.294 566.802L356.122 569.771L362.811 531.313L366.84 515.47L369.32 512.859L373.855 512.957L361.294 566.802Z" fill="#0A0808"/>
<path d="M452.277 619.339L439.454 549.407L437.089 543.729L429.976 545.197L433.027 552.425L433.288 552.295L447.155 622.292L452.277 619.339Z" fill="#211A1A"/>
<path d="M437.089 543.73L431.934 546.699L424.723 541.984L433.027 539.324L437.089 543.73Z" fill="#362C29"/>
<path d="M377.428 507.18L372.941 511.847L368.227 509.905L373.349 506.936L377.428 507.18Z" fill="#362C29"/>
<path d="M433.027 539.323L427.872 542.309L397.854 527.298L372.241 510.182L377.429 507.18L433.027 539.323Z" fill="#574943"/>
<path d="M372.893 514.1L427.219 545.443L429.813 548.299L431.396 552.133L443.99 620.532L447.155 622.294L434.283 552.427L431.934 546.7L427.872 542.311L372.241 510.184L368.227 509.906L365.845 512.892L353.006 567.944L356.122 569.771L368.733 515.943L370.348 513.92L372.893 514.1Z" fill="#0A0808"/>
<path d="M356.742 569.918L343.038 572.904L346.007 585.973H350.967L356.742 569.918Z" fill="#211A1A"/>
<path d="M418.654 539.438L350.967 570.488V585.972L418.654 546.927V539.438Z" fill="#362C29"/>
<path d="M346.007 568.171L299.985 551.871V559.409L346.007 585.972V568.171Z" fill="#0A0808"/>
<path d="M372.616 509.971H367.591L299.985 549.049V551.871L346.007 578.5H350.967L418.654 539.438V536.55L372.616 509.971Z" fill="#B5AFA7"/>
<path d="M356.742 565.463L343.038 568.449L346.007 578.5H350.967L356.742 565.463Z" fill="#9D9D9C"/>
<path d="M418.654 534.967L350.967 566.033V578.499L418.654 539.437V534.967Z" fill="#9D9D9C"/>
<path d="M346.007 563.685L299.985 547.434V551.872L346.007 578.5V563.685Z" fill="#706F6F"/>
<path d="M372.616 505.533H367.591L299.985 544.578V547.434L346.007 574.03H350.967L418.654 534.968V532.096L372.616 505.533Z" fill="#B2B2B2"/>
<path d="M283.883 611.508L278.711 614.51L285.4 576.02L289.381 560.176L291.844 557.582L296.461 557.664L283.883 611.508Z" fill="#0A0808"/>
<path d="M374.867 664.03L361.979 594.163L359.662 588.436L352.533 589.904L355.568 597.149L355.812 597.018L369.712 666.999L374.867 664.03Z" fill="#211A1A"/>
<path d="M359.662 588.435L354.474 591.421L347.296 586.69L355.567 584.014L359.662 588.435Z" fill="#362C29"/>
<path d="M299.984 551.871L295.514 556.57L290.767 554.612L295.922 551.643L299.984 551.871Z" fill="#362C29"/>
<path d="M355.567 584.014L350.396 587L320.394 572.006L294.813 554.922L299.985 551.871L355.567 584.014Z" fill="#574943"/>
<path d="M295.499 558.807L349.792 590.199L352.419 593.006L353.969 596.873L366.58 665.222L369.712 667.001L356.84 597.15L354.474 591.423L350.396 587.001L294.814 554.923L290.768 554.613L288.418 557.616L275.53 612.683L278.712 614.511L291.29 560.683L292.872 558.627L295.499 558.807Z" fill="#0A0808"/>
<path d="M330.199 511.325L351.848 517.77L353.643 495.58H344.768L330.199 511.325Z" fill="#0A0808"/>
<path d="M303.15 531.116L351.488 556.913L372.093 555.787L392.519 544.871L400.17 528.848L350.771 514.18L316.07 505.092L285.351 503.068L278.972 509.611L289.103 523.513L303.15 531.116Z" fill="#211A1A"/>
<path d="M263.327 642.378L257.715 645.641L237.388 573.18L254.42 527.608L263.327 526.629V642.378Z" fill="white"/>
<path d="M257.715 645.643L160.743 589.628V473.912L257.715 529.877V645.643Z" fill="#D1D1D1"/>
<path d="M371.718 353.725H362.974L155.066 473.471V478.545L243.293 529.502H252.07L459.929 409.723V404.648L371.718 353.725Z" fill="#6D6E71"/>
<path d="M243.293 529.502H252.054V533.157H243.293V529.502Z" fill="#414042"/>
<path d="M459.929 413.378L252.07 533.157V529.502L459.929 409.723V413.378Z" fill="#58595B"/>
<path d="M243.293 533.156L155.066 482.2V478.545L243.293 529.501V533.156Z" fill="#231F20"/>
<path opacity="0.3" d="M188.396 464.399L201.659 472.051L362.762 379.031L349.515 371.379L188.396 464.399Z" fill="black"/>
<path d="M225.609 461.004L226.897 457.79L206.456 447.82V449.876L225.609 461.004Z" fill="#403531"/>
<path d="M225.608 461.004L345.795 391.643V389.555L320.704 398.268L225.608 458.9V461.004Z" fill="#685750"/>
<path d="M225.608 458.9L345.795 389.556L326.593 378.428L206.456 447.822L225.608 458.9Z" fill="#836E69"/>
<path d="M219.132 443.79L221.432 445.128L328.225 368.62L325.924 367.299L225.592 425.206L219.132 443.79Z" fill="#403531"/>
<path d="M221.432 445.129L321.764 387.173L328.225 368.621L227.86 426.561L221.432 445.129Z" fill="#544540"/>
<path opacity="0.3" d="M223.015 457.399V459.52L206.456 449.877V447.822L326.593 378.428L343.152 388.022L223.015 457.399Z" fill="black"/>
<path d="M197.874 438.228L201.659 440.43L362.762 347.427L358.928 345.24L197.874 438.228Z" fill="#F4EFE9"/>
<path d="M197.874 450.627L201.659 452.813L204.253 445.536L201.659 440.429L197.874 438.227V450.627Z" fill="#403531"/>
<path d="M201.659 440.43L362.762 347.426V359.81L201.659 452.814V440.43Z" fill="#685750"/>
<path d="M197.874 339.595L201.659 341.781L362.762 248.761L358.928 246.607L197.874 339.595Z" fill="#574943"/>
<path d="M197.874 438.227L201.659 440.429V341.78L197.874 339.594V438.227Z" fill="#0A0808"/>
<path d="M201.659 341.78L362.762 248.76V347.425L201.659 440.429V341.78Z" fill="#362C29"/>
<path d="M202.932 437.379V438.129L361.375 346.659V251.045L360.739 251.437V346.251L202.932 437.379Z" fill="#0A0808"/>
<path d="M202.931 374.168L255.528 343.787V312.182L202.931 342.547V374.168Z" fill="#DADADA"/>
<path d="M255.528 343.787L223.226 362.437V349.645L255.528 330.979V343.787Z" fill="#878787"/>
<path d="M250.292 331.714L253.065 330.115V333.134L250.292 334.733V331.714Z" fill="#878787"/>
<path d="M244.582 335.008L247.339 333.426V336.428L244.582 338.027V335.008Z" fill="#878787"/>
<path d="M238.855 338.322L241.629 336.723V339.725L238.855 341.324V338.322Z" fill="#878787"/>
<path d="M233.146 341.617L235.919 340.018V343.036L233.146 344.635V341.617Z" fill="#878787"/>
<path d="M202.932 353.382L226.277 339.904V360.691L202.932 374.169V353.382Z" fill="#B2B2B2"/>
<path d="M217.728 357.249L222.378 354.557V347.133L217.728 349.809V357.249Z" fill="#878787"/>
<path d="M209.147 362.192L213.797 359.516V352.092L209.147 354.768V362.192Z" fill="#878787"/>
<path d="M235.984 328.809V327.145L239.639 325.023V326.688L241.629 325.546V329.07L233.619 333.687V330.163L235.984 328.809Z" fill="#F6F6F6"/>
<path d="M226.636 332.824V331.731L229.034 330.344V331.437L230.323 330.686V333.003L225.086 336.022V333.721L226.636 332.824Z" fill="#F6F6F6"/>
<path d="M247.176 320.699V319.606L249.574 318.219V319.312L250.863 318.561V320.862L245.626 323.897V321.58L247.176 320.699Z" fill="#F6F6F6"/>
<path d="M211.301 342.596V341.095L214.629 339.17V340.687L216.424 339.643V342.841L209.148 347.034V343.836L211.301 342.596Z" fill="#F6F6F6"/>
<path d="M255.528 343.787L308.142 313.422V281.801L255.528 312.182V343.787Z" fill="#B2B2B2"/>
<path d="M255.528 333.525L308.142 303.16V313.423L255.528 343.788V333.525Z" fill="#575756"/>
<path d="M267.308 309.051L296.38 292.277V320.211L267.308 336.984V309.051Z" fill="#878787"/>
<path d="M274.698 315.969L278.695 313.668V306.064L274.698 308.381V315.969Z" fill="#575756"/>
<path d="M268.972 319.281L272.969 316.964V309.377L268.972 311.678V319.281Z" fill="#575756"/>
<path d="M268.972 329.183L272.969 326.866V319.279L268.972 321.58V329.183Z" fill="#575756"/>
<path d="M290.702 306.732L294.699 304.415V296.828L290.702 299.129V306.732Z" fill="#575756"/>
<path d="M284.992 310.029L288.989 307.712V300.125L284.992 302.442V310.029Z" fill="#575756"/>
<path d="M290.702 316.636L294.699 314.32V306.732L290.702 309.033V316.636Z" fill="#575756"/>
<path d="M274.453 331.354L289.218 322.82V324.338L274.453 332.871V331.354Z" fill="#C6C6C6"/>
<path d="M278.63 319.475L285.058 315.771V325.235L278.63 328.939V319.475Z" fill="#706F6F"/>
<path d="M308.142 313.422L360.739 283.04V251.436L308.142 281.8V313.422Z" fill="#DADADA"/>
<path d="M308.142 281.8L324.065 272.614L333.348 273.446L342.647 261.878L360.739 251.436V257.13L346.693 274.621L360.739 275.894V283.04L344.817 292.227L308.142 288.963V281.8Z" fill="#878787"/>
<path d="M329.008 296.24L330.443 295.408V276.188L329.008 277.02V296.24Z" fill="#C6C6C6"/>
<path d="M316.723 294.969L318.143 294.137V276.025L316.723 276.858V294.969Z" fill="#C6C6C6"/>
<path d="M339.302 295.426L340.737 294.594V278.734L339.302 279.567V295.426Z" fill="#C6C6C6"/>
<path d="M350.543 288.932L351.979 288.1V279.289L350.543 280.121V288.932Z" fill="#C6C6C6"/>
<path d="M350.543 272.616L357.411 268.651V258.861L350.543 262.81V272.616Z" fill="#575756"/>
<path d="M310.23 302.996L320.965 303.958L324.636 299.39L313.901 298.443L310.23 302.996Z" fill="#575756"/>
<path d="M202.931 405.773L255.528 375.392V343.787L202.931 374.168V405.773Z" fill="#1D1D1B"/>
<path d="M220.192 381.985L238.301 371.542V367.039L220.192 377.498V381.985Z" fill="#F6F6F6"/>
<path d="M255.528 406.997L308.142 376.632V345.027L255.528 375.392V406.997Z" fill="#1D1D1B"/>
<path d="M272.789 383.225L290.882 372.766V368.279L272.789 378.738V383.225Z" fill="#F6F6F6"/>
<path d="M255.528 375.392L308.142 345.027V313.422L255.528 343.787V375.392Z" fill="#DADADA"/>
<path d="M290.702 323.489L308.142 313.422V345.027L290.702 355.094V323.489Z" fill="#B2B2B2"/>
<path d="M296.51 333.426L302.334 330.065V320.928L296.51 324.289V333.426Z" fill="#706F6F"/>
<path d="M296.51 345.077L302.334 341.715V332.578L296.51 335.939V345.077Z" fill="#706F6F"/>
<path d="M259.004 361.457V358.863L268.27 353.528V356.106L272.903 353.43L279.935 343.607L286.966 345.304L290.702 343.15V355.094L255.529 375.392V363.464L259.004 361.457Z" fill="#C6C6C6"/>
<path d="M262.413 349.483V348.243L265.154 346.66V347.9L266.639 347.052V349.679L260.651 353.138V350.511L262.413 349.483Z" fill="#F6F6F6"/>
<path d="M270.717 339.954V339.187L272.43 338.191V338.975L273.36 338.42V340.068L269.608 342.238V340.59L270.717 339.954Z" fill="#F6F6F6"/>
<path d="M277.161 339.153V337.603L280.587 335.629V337.179L282.431 336.118V339.398L274.959 343.722V340.442L277.161 339.153Z" fill="#F6F6F6"/>
<path d="M308.142 345.027L360.739 314.646V283.041L308.142 313.422V345.027Z" fill="#878787"/>
<path d="M316.723 340.067L328.241 333.41V312.395L316.723 319.052V340.067Z" fill="#575756"/>
<path d="M341.259 315.398L350.542 310.029V295.23L341.259 300.599V315.398Z" fill="#DADADA"/>
<path d="M202.931 437.379L255.528 406.998V375.393L202.931 405.774V437.379Z" fill="#C6C6C6"/>
<path d="M219.524 412.007L246.54 396.393V412.203L219.524 427.802V412.007Z" fill="#F6F6F6"/>
<path d="M232.705 395.348L249.884 394.467L215.51 414.308L232.705 395.348Z" fill="#9D9D9C"/>
<path d="M202.932 430.461L219.523 420.883V427.801L202.932 437.379V430.461Z" fill="#9D9D9C"/>
<path d="M223.064 416.786L225.837 415.187V410.211L223.064 411.826V416.786Z" fill="#B2B2B2"/>
<path d="M228.774 413.492L231.563 411.876V406.916L228.774 408.531V413.492Z" fill="#B2B2B2"/>
<path d="M234.483 410.195L237.289 408.579V403.619L234.483 405.218V410.195Z" fill="#B2B2B2"/>
<path d="M240.21 406.884L243 405.285V400.309L240.21 401.924V406.884Z" fill="#B2B2B2"/>
<path d="M223.064 423.804L225.837 422.189V417.229L223.064 418.828V423.804Z" fill="#B2B2B2"/>
<path d="M240.21 413.9L243 412.284V407.324L240.21 408.94V413.9Z" fill="#B2B2B2"/>
<path d="M238.953 409.658L255.528 400.08V406.998L238.953 416.576V409.658Z" fill="#9D9D9C"/>
<path d="M228.219 421.878L237.828 416.33V417.227L228.219 422.775V421.878Z" fill="#9D9D9C"/>
<path d="M230.192 416.168L235.854 412.904V417.473L230.192 420.736V416.168Z" fill="#706F6F"/>
<path d="M208.691 411.875V410.635L211.431 409.053V410.293L212.916 409.444V412.071L206.945 415.514V412.887L208.691 411.875Z" fill="#F6F6F6"/>
<path d="M216.995 402.347V401.564L218.724 400.568V401.352L219.638 400.813V402.461L215.902 404.631V402.983L216.995 402.347Z" fill="#F6F6F6"/>
<path d="M244.614 387.613V386.047L248.04 384.072V385.622L249.884 384.562V387.858L242.412 392.165V388.869L244.614 387.613Z" fill="#F6F6F6"/>
<path d="M308.142 376.633L360.739 346.251V314.646L308.142 345.028V376.633Z" fill="#DADADA"/>
<path d="M308.141 366.108L321.438 358.439V368.964L308.141 376.632V366.108Z" fill="#878787"/>
<path d="M360.739 325.938L321.438 348.634V368.964L360.739 346.251V325.938Z" fill="#F6F6F6"/>
<path d="M326.153 355.716L330.297 353.317V346.709L326.153 349.108V355.716Z" fill="#B2B2B2"/>
<path d="M334.734 350.754L338.878 348.356V341.764L334.734 344.162V350.754Z" fill="#B2B2B2"/>
<path d="M343.299 345.811L347.459 343.412V336.82L343.299 339.203V345.811Z" fill="#B2B2B2"/>
<path d="M351.881 340.85L356.024 338.468V331.859L351.881 334.242V340.85Z" fill="#B2B2B2"/>
<path d="M314.406 351.114V349.874L317.131 348.291V349.531L318.615 348.683V351.326L312.644 354.769V352.142L314.406 351.114Z" fill="#F6F6F6"/>
<path d="M322.711 341.584V340.818L324.424 339.822V340.605L325.354 340.067V341.715L321.601 343.869V342.221L322.711 341.584Z" fill="#F6F6F6"/>
<path d="M350.151 324.339V323.556L351.864 322.561V323.344L352.794 322.805V324.453L349.058 326.607V324.975L350.151 324.339Z" fill="#F6F6F6"/>
<path d="M355.062 325.775V324.991L356.775 323.996V324.796L357.688 324.241V325.889L353.953 328.059V326.411L355.062 325.775Z" fill="#F6F6F6"/>
<path d="M341.08 330.343V328.793L344.506 326.818V328.368L346.35 327.308V330.587L338.878 334.911V331.615L341.08 330.343Z" fill="#F6F6F6"/>
<path opacity="0.3" d="M294.715 478.577L366.873 436.889L339.84 421.307L267.683 462.979L294.715 478.577Z" fill="black"/>
<path d="M294.781 478.268L297.098 473.863L267.977 460.973V462.8L294.781 478.268Z" fill="#0A0808"/>
<path d="M294.781 478.268L366.318 436.954V435.127L360.853 436.481L299.365 472.051L294.781 476.457V478.268Z" fill="#362C29"/>
<path d="M294.781 476.456L366.318 435.126L339.482 419.658L267.977 460.971L294.781 476.456Z" fill="#574943"/>
<path d="M282.154 456.583L284.992 454.935L283.769 454.25L280.914 455.882L282.154 456.583Z" fill="#0A0808"/>
<path d="M278.94 458.394L281.795 456.762L280.571 456.061L277.749 457.725L278.94 458.394Z" fill="#0A0808"/>
<path d="M275.758 460.254L278.662 458.606L277.422 457.904L274.584 459.552L275.758 460.254Z" fill="#0A0808"/>
<path d="M282.284 455.946L283.98 455.032L283.605 454.82L281.941 455.783L282.284 455.946Z" fill="#DDE65C"/>
<path d="M279.119 457.84L280.783 456.877L280.441 456.682L278.744 457.628L279.119 457.84Z" fill="#DDE65C"/>
<path d="M275.938 459.651L277.635 458.689L277.292 458.477L275.579 459.456L275.938 459.651Z" fill="#DDE65C"/>
<path d="M335.827 424.179V423.314L341.472 421.438V422.319L337.018 424.88L335.827 424.179Z" fill="#403531"/>
<path d="M335.827 423.314L340.281 420.736L341.472 421.438L337.018 424L335.827 423.314Z" fill="#836E69"/>
<path d="M333.869 426.707L332.662 426.006V425.108L336.757 424.211V425.076L333.869 426.707Z" fill="#403531"/>
<path d="M333.869 425.859L332.662 425.108L335.517 423.477L336.757 424.211L333.869 425.859Z" fill="#836E69"/>
<path d="M330.688 428.535L329.481 427.85V426.985L333.56 426.006V426.887L330.688 428.535Z" fill="#403531"/>
<path d="M330.688 427.655L329.481 426.986L332.32 425.338L333.56 426.007L330.688 427.655Z" fill="#836E69"/>
<path d="M327.523 430.346L326.3 429.677V428.796L330.346 427.85V428.714L327.523 430.346Z" fill="#403531"/>
<path d="M327.523 429.498L326.3 428.796L329.187 427.148L330.346 427.85L327.523 429.498Z" fill="#836E69"/>
<path d="M324.326 432.206L323.151 431.504V430.656L327.197 429.693V430.574L324.326 432.206Z" fill="#403531"/>
<path d="M324.326 431.341L323.151 430.656L326.006 429.008L327.197 429.693L324.326 431.341Z" fill="#836E69"/>
<path d="M321.16 434.049L319.953 433.315V432.466L323.999 431.553V432.385L321.16 434.049Z" fill="#403531"/>
<path d="M321.16 433.186L319.953 432.468L322.824 430.836L323.999 431.554L321.16 433.186Z" fill="#836E69"/>
<path d="M317.996 435.877L316.74 435.191V434.31L320.818 433.348V434.212L317.996 435.877Z" fill="#403531"/>
<path d="M317.996 435.014L316.74 434.312L319.611 432.664L320.818 433.349L317.996 435.014Z" fill="#836E69"/>
<path d="M314.782 437.688L313.591 437.003V436.154L317.653 435.191V436.056L314.782 437.688Z" fill="#403531"/>
<path d="M314.782 436.857L313.591 436.156L316.446 434.508L317.653 435.193L314.782 436.857Z" fill="#836E69"/>
<path d="M311.617 439.564L310.442 438.846V437.981L314.488 437.035V437.867L311.617 439.564Z" fill="#403531"/>
<path d="M311.617 438.684L310.442 437.982L313.314 436.334L314.488 437.036L311.617 438.684Z" fill="#836E69"/>
<path d="M308.452 441.375L307.228 440.657V439.809L311.307 438.879V439.744L308.452 441.375Z" fill="#403531"/>
<path d="M308.452 440.495L307.228 439.809L310.083 438.178L311.307 438.879L308.452 440.495Z" fill="#836E69"/>
<path d="M305.271 443.22L304.064 442.534V441.653L308.126 440.707V441.572L305.271 443.22Z" fill="#403531"/>
<path d="M305.271 442.372L304.064 441.654L306.919 440.006L308.126 440.707L305.271 442.372Z" fill="#836E69"/>
<path d="M302.105 445.032L300.898 444.363V443.514L304.928 442.535V443.416L302.105 445.032Z" fill="#403531"/>
<path d="M302.105 444.182L300.898 443.513L303.721 441.865L304.928 442.534L302.105 444.182Z" fill="#836E69"/>
<path d="M298.924 446.907L297.717 446.189V445.308L301.763 444.361V445.242L298.924 446.907Z" fill="#403531"/>
<path d="M298.924 446.027L297.717 445.309L300.588 443.693L301.763 444.362L298.924 446.027Z" fill="#836E69"/>
<path d="M295.776 448.735L294.536 448.017V447.152L298.582 446.238V447.087L295.776 448.735Z" fill="#403531"/>
<path d="M295.776 447.838L294.536 447.152L297.424 445.537L298.582 446.239L295.776 447.838Z" fill="#836E69"/>
<path d="M339.205 426.137V425.272L346.546 424.342V425.223L342.092 427.785L339.205 426.137Z" fill="#403531"/>
<path d="M339.205 425.271L343.658 422.693L346.546 424.341L342.092 426.936L339.205 425.271Z" fill="#836E69"/>
<path d="M337.557 427.083L338.911 426.332L340.298 427.083H341.782V427.964L338.911 429.612L336.056 427.964V427.083H337.557Z" fill="#403531"/>
<path d="M338.911 425.451L341.782 427.083L338.911 428.731L336.056 427.083L338.911 425.451Z" fill="#836E69"/>
<path d="M334.359 428.927L335.73 428.16L337.1 428.927H338.568V429.808L335.73 431.456L332.875 429.808V428.927H334.359Z" fill="#403531"/>
<path d="M335.73 427.279L338.568 428.927L335.73 430.575L332.875 428.927L335.73 427.279Z" fill="#836E69"/>
<path d="M331.194 430.77L332.548 429.971L333.902 430.77H335.419V431.619L332.548 433.299L329.709 431.619V430.77H331.194Z" fill="#403531"/>
<path d="M332.548 429.123L335.419 430.771L332.548 432.419L329.709 430.771L332.548 429.123Z" fill="#836E69"/>
<path d="M328.045 432.599L329.399 431.832L330.753 432.599H332.222V433.447L329.399 435.128L326.528 433.447V432.599H328.045Z" fill="#403531"/>
<path d="M329.399 430.982L332.222 432.598L329.399 434.246L326.528 432.598L329.399 430.982Z" fill="#836E69"/>
<path d="M324.848 434.426L326.202 433.691L327.605 434.426H329.057V435.323L326.202 436.955L323.379 435.323V434.426H324.848Z" fill="#403531"/>
<path d="M326.202 432.777L329.057 434.425L326.202 436.106L323.379 434.425L326.202 432.777Z" fill="#836E69"/>
<path d="M321.65 436.286L323.036 435.486L324.407 436.286H325.875V437.118L323.036 438.799L320.181 437.118V436.286H321.65Z" fill="#403531"/>
<path d="M323.036 434.637L325.875 436.285L323.036 437.916L320.181 436.285L323.036 434.637Z" fill="#836E69"/>
<path d="M318.469 438.112L319.84 437.312L321.21 438.112H322.711V438.977L319.84 440.625L317.017 438.977V438.112H318.469Z" fill="#403531"/>
<path d="M319.84 436.48L322.711 438.112L319.84 439.793L317.017 438.112L319.84 436.48Z" fill="#836E69"/>
<path d="M315.304 439.924L316.691 439.174L318.045 439.924H319.546V440.822L316.691 442.47L313.836 440.822V439.924H315.304Z" fill="#403531"/>
<path d="M316.691 438.293L319.546 439.925L316.691 441.589L313.836 439.925L316.691 438.293Z" fill="#836E69"/>
<path d="M312.123 441.784L313.509 440.984L314.847 441.784H316.315V442.632L313.509 444.28L310.622 442.632V441.784H312.123Z" fill="#403531"/>
<path d="M313.509 440.137L316.315 441.785L313.509 443.416L310.622 441.785L313.509 440.137Z" fill="#836E69"/>
<path d="M308.925 443.628L310.295 442.828L311.698 443.628H313.15V444.492L310.295 446.124L307.473 444.492V443.628H308.925Z" fill="#403531"/>
<path d="M310.295 441.947L313.15 443.628L310.295 445.276L307.473 443.628L310.295 441.947Z" fill="#836E69"/>
<path d="M305.809 445.454L307.147 444.688L308.501 445.454H309.985V446.286L307.147 447.951L304.275 446.286V445.454H305.809Z" fill="#403531"/>
<path d="M307.147 443.791L309.985 445.455L307.147 447.087L304.275 445.455L307.147 443.791Z" fill="#836E69"/>
<path d="M302.611 447.266L303.949 446.467L305.287 447.266H306.82V448.147L303.949 449.795L301.094 448.147V447.266H302.611Z" fill="#403531"/>
<path d="M303.949 445.668L306.82 447.267L303.949 448.931L301.094 447.267L303.949 445.668Z" fill="#836E69"/>
<path d="M299.414 449.127L300.768 448.344L302.155 449.127H303.623V449.975L300.768 451.623L297.929 449.975V449.127H299.414Z" fill="#403531"/>
<path d="M300.768 447.479L303.623 449.126L300.768 450.774L297.929 449.126L300.768 447.479Z" fill="#836E69"/>
<path d="M345.322 426.121L346.741 425.338L348.079 426.121H349.58V426.986L346.741 428.634L343.886 426.986V426.121H345.322Z" fill="#403531"/>
<path d="M346.741 424.473L349.58 426.121L346.741 427.769L343.886 426.121L346.741 424.473Z" fill="#836E69"/>
<path d="M342.173 427.948L343.56 427.148L344.898 427.948H346.398V428.796L343.56 430.477L340.672 428.796V427.948H342.173Z" fill="#403531"/>
<path d="M343.56 426.316L346.398 427.948L343.56 429.596L340.672 427.948L343.56 426.316Z" fill="#836E69"/>
<path d="M338.992 429.807L340.362 429.008L341.749 429.807H343.201V430.656L340.362 432.271L337.459 430.656V429.807H338.992Z" fill="#403531"/>
<path d="M340.362 428.16L343.201 429.808L340.362 431.423L337.459 429.808L340.362 428.16Z" fill="#836E69"/>
<path d="M335.827 431.603L337.214 430.836L338.535 431.603H339.987V432.468L337.214 434.132L334.294 432.468V431.603H335.827Z" fill="#403531"/>
<path d="M337.214 429.971L339.987 431.602L337.214 433.267L334.294 431.602L337.214 429.971Z" fill="#836E69"/>
<path d="M332.662 433.447L334 432.664L335.371 433.447H336.839V434.312L334 435.96L331.162 434.312V433.447H332.662Z" fill="#403531"/>
<path d="M334 431.799L336.839 433.447L334 435.111L331.162 433.447L334 431.799Z" fill="#836E69"/>
<path d="M329.464 435.324L330.835 434.508L332.173 435.324H333.657V436.156L330.835 437.804L327.996 436.156V435.324H329.464Z" fill="#403531"/>
<path d="M330.835 433.643L333.657 435.323L330.835 436.922L327.996 435.323L330.835 433.643Z" fill="#836E69"/>
<path d="M326.283 437.117L327.621 436.334L328.992 437.117H330.509V437.982L327.621 439.663L324.799 437.982V437.117H326.283Z" fill="#403531"/>
<path d="M327.621 435.486L330.509 437.118L327.621 438.766L324.799 437.118L327.621 435.486Z" fill="#836E69"/>
<path d="M323.102 438.977L324.472 438.178L325.843 438.977H327.327V439.809L324.472 441.457L321.585 439.809V438.977H323.102Z" fill="#403531"/>
<path d="M324.472 437.312L327.327 438.977L324.472 440.625L321.585 438.977L324.472 437.312Z" fill="#836E69"/>
<path d="M319.921 440.805L321.307 440.006L322.661 440.805H324.113V441.654L321.307 443.302L318.403 441.654V440.805H319.921Z" fill="#403531"/>
<path d="M321.307 439.141L324.113 440.805L321.307 442.437L318.403 440.805L321.307 439.141Z" fill="#836E69"/>
<path d="M316.739 442.632L318.126 441.865L319.447 442.632H320.948V443.513L318.126 445.129L315.238 443.513V442.632H316.739Z" fill="#403531"/>
<path d="M318.126 440.984L320.948 442.632L318.126 444.28L315.238 442.632L318.126 440.984Z" fill="#836E69"/>
<path d="M313.542 444.444L314.928 443.693L316.282 444.444H317.783V445.309L314.928 446.989L312.057 445.309V444.444H313.542Z" fill="#403531"/>
<path d="M314.928 442.812L317.783 444.444L314.928 446.125L312.057 444.444L314.928 442.812Z" fill="#836E69"/>
<path d="M310.394 446.288L311.78 445.537L313.135 446.288H314.619V447.152L311.78 448.817L308.909 447.152V446.288H310.394Z" fill="#403531"/>
<path d="M311.78 444.688L314.619 446.286L311.78 447.951L308.909 446.286L311.78 444.688Z" fill="#836E69"/>
<path d="M307.228 448.147L308.566 447.348L309.969 448.147H311.421V448.996L308.566 450.644L305.727 448.996V448.147H307.228Z" fill="#403531"/>
<path d="M308.566 446.467L311.421 448.147L308.566 449.795L305.727 448.147L308.566 446.467Z" fill="#836E69"/>
<path d="M300.964 451.737V450.888L308.272 449.975V450.839L303.802 453.401L300.964 451.737Z" fill="#403531"/>
<path d="M300.964 450.889L305.369 448.344L308.272 449.975L303.802 452.521L300.964 450.889Z" fill="#836E69"/>
<path d="M345.437 429.678V428.797L352.647 427.965V428.83L348.324 431.342L345.437 429.678Z" fill="#403531"/>
<path d="M345.437 428.796L349.76 426.332L352.647 427.964L348.324 430.444L345.437 428.796Z" fill="#836E69"/>
<path d="M343.74 430.656L345.143 429.873L346.529 430.656H347.981V431.505L345.143 433.136L342.255 431.505V430.656H343.74Z" fill="#403531"/>
<path d="M345.143 429.008L347.981 430.656L345.143 432.271L342.255 430.656L345.143 429.008Z" fill="#836E69"/>
<path d="M340.607 432.467L341.945 431.668L343.315 432.467H344.816V433.316L341.945 435.013L339.074 433.316V432.467H340.607Z" fill="#403531"/>
<path d="M341.945 430.82L344.816 432.468L341.945 434.133L339.074 432.468L341.945 430.82Z" fill="#836E69"/>
<path d="M337.425 434.311L338.796 433.512L340.134 434.311H341.618V435.192L338.796 436.824L335.941 435.192V434.311H337.425Z" fill="#403531"/>
<path d="M338.796 432.664L341.618 434.312L338.796 435.96L335.941 434.312L338.796 432.664Z" fill="#836E69"/>
<path d="M334.228 436.155L335.615 435.355L336.969 436.155H338.438V437.003L335.615 438.668L332.76 437.003V436.155H334.228Z" fill="#403531"/>
<path d="M335.615 434.508L338.438 436.156L335.615 437.787L332.76 436.156L335.615 434.508Z" fill="#836E69"/>
<path d="M331.047 437.982L332.401 437.215L333.772 437.982H335.289V438.846L332.401 440.494L329.595 438.846V437.982H331.047Z" fill="#403531"/>
<path d="M332.401 436.334L335.289 437.982L332.401 439.663L329.595 437.982L332.401 436.334Z" fill="#836E69"/>
<path d="M327.866 439.811L329.252 439.027L330.639 439.811H332.107V440.659L329.252 442.323L326.397 440.659V439.811H327.866Z" fill="#403531"/>
<path d="M329.252 438.178L332.107 439.809L329.252 441.457L326.397 439.809L329.252 438.178Z" fill="#836E69"/>
<path d="M324.733 441.654L326.038 440.871L327.425 441.654H328.926V442.535L326.038 444.151L323.2 442.535V441.654H324.733Z" fill="#403531"/>
<path d="M326.038 439.99L328.926 441.654L326.038 443.302L323.2 441.654L326.038 439.99Z" fill="#836E69"/>
<path d="M321.503 443.497L322.906 442.697L324.277 443.497H325.729V444.362L322.906 446.026L320.051 444.362V443.497H321.503Z" fill="#403531"/>
<path d="M322.906 441.865L325.729 443.497L322.906 445.129L320.051 443.497L322.906 441.865Z" fill="#836E69"/>
<path d="M318.322 445.309L319.708 444.525L321.046 445.309H322.563V446.19L319.708 447.821L316.854 446.19V445.309H318.322Z" fill="#403531"/>
<path d="M319.708 443.693L322.563 445.309L319.708 446.989L316.854 445.309L319.708 443.693Z" fill="#836E69"/>
<path d="M315.157 447.152L316.544 446.369L317.898 447.152H319.383V448.017L316.544 449.649L313.657 448.017V447.152H315.157Z" fill="#403531"/>
<path d="M316.544 445.537L319.383 447.152L316.544 448.817L313.657 447.152L316.544 445.537Z" fill="#836E69"/>
<path d="M312.025 448.997L313.363 448.197L314.733 448.997H316.218V449.862L313.363 451.51L310.491 449.862V448.997H312.025Z" fill="#403531"/>
<path d="M313.363 447.348L316.218 448.996L313.363 450.644L310.491 448.996L313.363 447.348Z" fill="#836E69"/>
<path d="M308.811 450.84L310.149 450.057L311.536 450.84H313.053V451.688L310.149 453.353L307.343 451.688V450.84H308.811Z" fill="#403531"/>
<path d="M310.149 449.158L313.053 450.839L310.149 452.454L307.343 450.839L310.149 449.158Z" fill="#836E69"/>
<path d="M347.671 431.961V431.08L355.697 429.742V430.607L350.542 433.609L347.671 431.961Z" fill="#403531"/>
<path d="M347.671 431.08L352.859 428.094L355.697 429.742L350.542 432.728L347.671 431.08Z" fill="#836E69"/>
<path d="M346.007 432.924L347.361 432.141L348.732 432.924H350.232V433.805L347.361 435.437L344.49 433.805V432.924H346.007Z" fill="#403531"/>
<path d="M347.361 431.26L350.232 432.924L347.361 434.572L344.49 432.924L347.361 431.26Z" fill="#836E69"/>
<path d="M342.826 434.735L344.164 433.984L345.551 434.735H347.035V435.616L344.164 437.264L341.342 435.616V434.735H342.826Z" fill="#403531"/>
<path d="M344.164 433.088L347.035 434.736L344.164 436.384L341.342 434.736L344.164 433.088Z" fill="#836E69"/>
<path d="M339.629 436.596L341.015 435.797L342.353 436.596H343.887V437.461L341.015 439.093L338.144 437.461V436.596H339.629Z" fill="#403531"/>
<path d="M341.015 434.932L343.887 436.596L341.015 438.244L338.144 436.596L341.015 434.932Z" fill="#836E69"/>
<path d="M336.48 438.423L337.834 437.656L339.205 438.423H340.673V439.304L337.834 440.92L334.963 439.304V438.423H336.48Z" fill="#403531"/>
<path d="M337.834 436.775L340.673 438.423L337.834 440.071L334.963 438.423L337.834 436.775Z" fill="#836E69"/>
<path d="M333.282 440.25L334.685 439.467L336.022 440.25H337.458V441.098L334.685 442.779L331.813 441.098V440.25H333.282Z" fill="#403531"/>
<path d="M334.685 438.619L337.458 440.251L334.685 441.915L331.813 440.251L334.685 438.619Z" fill="#836E69"/>
<path d="M330.101 442.094L331.472 441.311L332.809 442.094H334.294V442.959L331.472 444.606L328.584 442.959V442.094H330.101Z" fill="#403531"/>
<path d="M331.472 440.43L334.294 442.094L331.472 443.726L328.584 442.094L331.472 440.43Z" fill="#836E69"/>
<path d="M326.936 443.922L328.274 443.139L329.611 443.922H331.161V444.787L328.274 446.467L325.451 444.787V443.922H326.936Z" fill="#403531"/>
<path d="M328.274 442.289L331.161 443.921L328.274 445.585L325.451 443.921L328.274 442.289Z" fill="#836E69"/>
<path d="M323.754 445.765L325.092 444.949L326.495 445.765H327.996V446.613L325.092 448.278L322.27 446.613V445.765H323.754Z" fill="#403531"/>
<path d="M325.092 444.117L327.996 445.765L325.092 447.413L322.27 445.765L325.092 444.117Z" fill="#836E69"/>
<path d="M320.573 447.609L321.911 446.826L323.314 447.609H324.799V448.474L321.911 450.122L319.089 448.474V447.609H320.573Z" fill="#403531"/>
<path d="M321.911 445.977L324.799 447.608L321.911 449.24L319.089 447.608L321.911 445.977Z" fill="#836E69"/>
<path d="M317.392 449.453L318.763 448.67L320.133 449.453H321.585V450.285L318.763 451.949L315.891 450.285V449.453H317.392Z" fill="#403531"/>
<path d="M318.763 447.756L321.585 449.453L318.763 451.068L315.891 449.453L318.763 447.756Z" fill="#836E69"/>
<path d="M314.243 451.28L315.565 450.48L316.919 451.28H318.403V452.112L315.565 453.809L312.71 452.112V451.28H314.243Z" fill="#403531"/>
<path d="M315.565 449.615L318.403 451.279L315.565 452.927L312.71 451.279L315.565 449.615Z" fill="#836E69"/>
<path d="M304.161 453.516V452.668L310.083 453.663L315.238 453.092V453.973L310.083 456.943L304.161 453.516Z" fill="#403531"/>
<path d="M304.161 452.667L306.983 451.02L310.083 452.782L312.416 451.46L315.238 453.092L310.083 456.094L304.161 452.667Z" fill="#836E69"/>
<path d="M352.337 432.777V431.961L358.781 431.504V432.385L355.208 434.425L352.337 432.777Z" fill="#403531"/>
<path d="M352.337 431.962L355.91 429.873L358.781 431.505L355.208 433.61L352.337 431.962Z" fill="#836E69"/>
<path d="M350.608 433.773L352.011 432.99L353.365 433.773H354.85V434.638L352.011 436.286L349.156 434.638V433.773H350.608Z" fill="#403531"/>
<path d="M352.011 432.141L354.85 433.772L352.011 435.437L349.156 433.772L352.011 432.141Z" fill="#836E69"/>
<path d="M347.443 435.617L348.813 434.801L350.2 435.617H351.668V436.481L348.813 438.113L345.991 436.481V435.617H347.443Z" fill="#403531"/>
<path d="M348.813 433.953L351.668 435.617L348.813 437.249L345.991 435.617L348.813 433.953Z" fill="#836E69"/>
<path d="M344.311 437.444L345.649 436.645L347.019 437.444H348.487V438.293L345.649 439.924L342.794 438.293V437.444H344.311Z" fill="#403531"/>
<path d="M345.649 435.797L348.487 437.445L345.649 439.093L342.794 437.445L345.649 435.797Z" fill="#836E69"/>
<path d="M341.097 439.305L342.467 438.473L343.838 439.305H345.322V440.137L342.467 441.785L339.629 440.137V439.305H341.097Z" fill="#403531"/>
<path d="M342.467 437.623L345.322 439.304L342.467 440.919L339.629 439.304L342.467 437.623Z" fill="#836E69"/>
<path d="M337.931 441.099L339.302 440.332L340.656 441.099H342.124V441.947L339.302 443.628L336.447 441.947V441.099H337.931Z" fill="#403531"/>
<path d="M339.302 439.467L342.124 441.098L339.302 442.779L336.447 441.098L339.302 439.467Z" fill="#836E69"/>
<path d="M334.767 442.96L336.104 442.16L337.458 442.96H338.976V443.792L336.104 445.456L333.266 443.792V442.96H334.767Z" fill="#403531"/>
<path d="M336.104 441.295L338.976 442.959L336.104 444.591L333.266 442.959L336.104 441.295Z" fill="#836E69"/>
<path d="M331.586 444.771L332.956 444.004L334.294 444.771H335.778V445.668L332.956 447.267L330.085 445.668V444.771H331.586Z" fill="#403531"/>
<path d="M332.956 443.139L335.778 444.77L332.956 446.467L330.085 444.77L332.956 443.139Z" fill="#836E69"/>
<path d="M328.404 446.597L329.759 445.83L331.129 446.597H332.63V447.478L329.759 449.126L326.887 447.478V446.597H328.404Z" fill="#403531"/>
<path d="M329.759 444.949L332.63 446.597L329.759 448.278L326.887 446.597L329.759 444.949Z" fill="#836E69"/>
<path d="M325.207 448.475L326.545 447.691L327.98 448.475H329.416V449.307L326.545 451.004L323.722 449.307V448.475H325.207Z" fill="#403531"/>
<path d="M326.545 446.809L329.416 448.473L326.545 450.104L323.722 448.473L326.545 446.809Z" fill="#836E69"/>
<path d="M322.025 450.285L323.395 449.502L324.749 450.285H326.267V451.15L323.395 452.814L320.524 451.15V450.285H322.025Z" fill="#403531"/>
<path d="M323.395 448.67L326.267 450.285L323.395 451.933L320.524 450.285L323.395 448.67Z" fill="#836E69"/>
<path d="M318.844 452.113L320.247 451.346L321.568 452.113H323.069V452.994L320.247 454.642L317.359 452.994V452.113H318.844Z" fill="#403531"/>
<path d="M320.247 450.48L323.069 452.112L320.247 453.776L317.359 452.112L320.247 450.48Z" fill="#836E69"/>
<path d="M310.262 457.073V456.208L319.888 453.973V454.821L313.15 458.721L310.262 457.073Z" fill="#403531"/>
<path d="M310.262 456.208L317.049 452.324L319.888 453.972L313.15 457.872L310.262 456.208Z" fill="#836E69"/>
<path d="M361.832 433.299V434.131L357.395 436.709L354.556 435.061V434.196L361.832 433.299Z" fill="#403531"/>
<path d="M359.01 431.619L361.832 433.3L357.395 435.845L354.556 434.197L359.01 431.619Z" fill="#836E69"/>
<path d="M357.052 436.041V436.89L353.495 438.978L350.608 437.314V436.482L357.052 436.041Z" fill="#403531"/>
<path d="M354.246 434.344L357.052 436.041L353.495 438.113L350.608 436.481L354.246 434.344Z" fill="#836E69"/>
<path d="M353.152 438.293V439.141L348.715 441.719L345.844 440.071V439.223L353.152 438.293Z" fill="#403531"/>
<path d="M350.297 436.629L353.152 438.293L348.715 440.871L345.844 439.223L350.297 436.629Z" fill="#836E69"/>
<path d="M348.356 441.033V441.914L329.611 452.732L326.773 451.068V450.219L348.356 441.033Z" fill="#403531"/>
<path d="M345.518 439.369L348.356 441.033L329.611 451.868L326.773 450.22L345.518 439.369Z" fill="#836E69"/>
<path d="M329.317 452.047V452.928L325.19 455.326L322.302 453.695V452.814L329.317 452.047Z" fill="#403531"/>
<path d="M326.462 450.416L329.317 452.048L325.19 454.43L322.302 452.815L326.462 450.416Z" fill="#836E69"/>
<path d="M324.848 454.641V455.505L321.177 457.627L318.306 455.946V455.13L324.848 454.641Z" fill="#403531"/>
<path d="M321.96 453.01L324.848 454.641L321.177 456.763L318.306 455.131L321.96 453.01Z" fill="#836E69"/>
<path d="M320.851 456.941V457.79L316.217 460.498L313.362 458.85V457.986L320.851 456.941Z" fill="#403531"/>
<path d="M318.028 455.295L320.851 456.943L316.217 459.619L313.362 457.987L318.028 455.295Z" fill="#836E69"/>
<path d="M295.923 451.15L297.26 450.367L298.582 451.15H300.115V452.015L297.26 453.696L294.373 452.015V451.15H295.923Z" fill="#403531"/>
<path d="M297.26 449.502L300.115 451.15L297.26 452.814L294.373 451.15L297.26 449.502Z" fill="#836E69"/>
<path d="M298.925 452.929L300.262 452.113L301.682 452.929H303.134V453.81L300.262 455.442L297.456 453.81V452.929H298.925Z" fill="#403531"/>
<path d="M300.262 451.279L303.134 452.927L300.262 454.575L297.456 452.927L300.262 451.279Z" fill="#836E69"/>
<path d="M302.057 454.739L303.428 453.939L304.782 454.739H306.299V455.587L303.428 457.235L300.589 455.587V454.739H302.057Z" fill="#403531"/>
<path d="M303.428 453.074L306.299 454.739L303.428 456.386L300.589 454.739L303.428 453.074Z" fill="#836E69"/>
<path d="M292.709 452.994L294.063 452.211L295.45 452.994H296.918V453.892L294.063 455.507L291.241 453.892V452.994H292.709Z" fill="#403531"/>
<path d="M294.063 451.346L296.918 452.994L294.063 454.642L291.241 452.994L294.063 451.346Z" fill="#836E69"/>
<path d="M295.792 454.756L297.129 453.973L298.467 454.756H299.984V455.604L297.129 457.269L294.242 455.604V454.756H295.792Z" fill="#403531"/>
<path d="M297.129 453.092L299.984 454.756L297.129 456.404L294.242 454.756L297.129 453.092Z" fill="#836E69"/>
<path d="M298.908 456.55L300.246 455.783L301.632 456.55H303.101V457.399L300.246 459.063L297.423 457.399V456.55H298.908Z" fill="#403531"/>
<path d="M300.246 454.918L303.101 456.55L300.246 458.198L297.423 456.55L300.246 454.918Z" fill="#836E69"/>
<path d="M289.544 454.82L290.882 454.037L292.252 454.82H293.753V455.685L290.882 457.317L288.043 455.685V454.82H289.544Z" fill="#403531"/>
<path d="M290.882 453.189L293.753 454.821L290.882 456.469L288.043 454.821L290.882 453.189Z" fill="#836E69"/>
<path d="M292.594 456.616L293.916 455.816L295.319 456.616H296.787V457.448L293.916 459.112L291.093 457.448V456.616H292.594Z" fill="#403531"/>
<path d="M293.916 454.936L296.787 456.616L293.916 458.215L291.093 456.616L293.916 454.936Z" fill="#836E69"/>
<path d="M295.726 458.394L297.097 457.627L298.435 458.394H299.936V459.242L297.097 460.874L294.226 459.242V458.394H295.726Z" fill="#403531"/>
<path d="M297.097 456.73L299.936 458.395L297.097 460.043L294.226 458.395L297.097 456.73Z" fill="#836E69"/>
<path d="M311.274 460.042L312.628 459.242L314.015 460.042H315.483V460.874L312.628 462.554L309.79 460.874V460.042H311.274Z" fill="#403531"/>
<path d="M312.628 458.395L315.483 460.043L312.628 461.69L309.79 460.043L312.628 458.395Z" fill="#836E69"/>
<path d="M305.026 460.09L306.413 459.34L307.734 460.09H309.268V460.971L306.413 462.619L303.525 460.971V460.09H305.026Z" fill="#403531"/>
<path d="M306.413 458.477L309.268 460.092L306.413 461.756L303.525 460.092L306.413 458.477Z" fill="#836E69"/>
<path d="M308.093 461.853L309.48 461.086L310.802 461.853H312.286V462.734L309.48 464.398L306.625 462.734V461.853H308.093Z" fill="#403531"/>
<path d="M309.48 460.254L312.286 461.853L309.48 463.534L306.625 461.853L309.48 460.254Z" fill="#836E69"/>
<path d="M304.895 463.73L306.298 462.914L307.636 463.73H309.153V464.562L306.298 466.243L303.427 464.562V463.73H304.895Z" fill="#403531"/>
<path d="M306.298 462.066L309.153 463.731L306.298 465.346L303.427 463.731L306.298 462.066Z" fill="#836E69"/>
<path d="M285.759 456.974L287.162 456.207L288.516 456.974H290.033V457.839L287.162 459.503L284.307 457.839V456.974H285.759Z" fill="#403531"/>
<path d="M287.162 455.326L290.033 456.974L287.162 458.622L284.307 456.974L287.162 455.326Z" fill="#836E69"/>
<path d="M288.859 458.753L290.197 457.953L291.567 458.753H293.052V459.601L290.197 461.249L287.325 459.601V458.753H288.859Z" fill="#403531"/>
<path d="M290.197 457.105L293.052 458.753L290.197 460.385L287.325 458.753L290.197 457.105Z" fill="#836E69"/>
<path d="M291.991 460.565L293.329 459.766L294.716 460.565H296.2V461.414L293.329 463.045L290.507 461.414V460.565H291.991Z" fill="#403531"/>
<path d="M293.329 458.916L296.2 460.564L293.329 462.179L290.507 460.564L293.329 458.916Z" fill="#836E69"/>
<path d="M295.124 462.359L296.461 461.576L297.848 462.359H299.365V463.224L296.461 464.872L293.59 463.224V462.359H295.124Z" fill="#403531"/>
<path d="M296.461 460.727L299.365 462.358L296.461 464.006L293.59 462.358L296.461 460.727Z" fill="#836E69"/>
<path d="M298.19 464.137L299.528 463.338L300.915 464.137H302.383V464.986L299.528 466.634L296.689 464.986V464.137H298.19Z" fill="#403531"/>
<path d="M299.528 462.49L302.383 464.138L299.528 465.77L296.689 464.138L299.528 462.49Z" fill="#836E69"/>
<path d="M282.659 458.802L283.997 458.035L285.384 458.802H286.819V459.65L283.997 461.331L281.126 459.65V458.802H282.659Z" fill="#403531"/>
<path d="M283.997 457.154L286.819 458.802L283.997 460.45L281.126 458.802L283.997 457.154Z" fill="#836E69"/>
<path d="M285.71 460.596L287.031 459.797L288.385 460.596H289.902V461.445L287.031 463.076L284.176 461.445V460.596H285.71Z" fill="#403531"/>
<path d="M287.031 458.949L289.902 460.597L287.031 462.245L284.176 460.597L287.031 458.949Z" fill="#836E69"/>
<path d="M288.826 462.409L290.196 461.609L291.534 462.409H293.035V463.241L290.196 464.889L287.309 463.241V462.409H288.826Z" fill="#403531"/>
<path d="M290.196 460.744L293.035 462.408L290.196 464.04L287.309 462.408L290.196 460.744Z" fill="#836E69"/>
<path d="M291.925 464.203L293.328 463.42L294.682 464.203H296.167V465.052L293.328 466.7L290.441 465.052V464.203H291.925Z" fill="#403531"/>
<path d="M293.328 462.555L296.167 464.203L293.328 465.851L290.441 464.203L293.328 462.555Z" fill="#836E69"/>
<path d="M295.009 465.964L296.38 465.197L297.75 465.964H299.202V466.796L296.38 468.477L293.525 466.796V465.964H295.009Z" fill="#403531"/>
<path d="M296.38 464.334L299.202 465.966L296.38 467.614L293.525 465.966L296.38 464.334Z" fill="#836E69"/>
<path d="M298.843 467.206L302.579 465.068L304.275 466.096L305.385 465.868V466.716L299.365 470.192L296.51 468.576V467.695L298.843 467.206Z" fill="#403531"/>
<path d="M302.579 464.219L305.385 465.867L299.365 469.326L296.51 467.694L302.579 464.219Z" fill="#836E69"/>
<path d="M279.462 460.63L280.816 459.863L282.186 460.63H283.671V461.511L280.816 463.143L277.977 461.511V460.63H279.462Z" fill="#403531"/>
<path d="M280.816 458.998L283.671 460.63L280.816 462.31L277.977 460.63L280.816 458.998Z" fill="#836E69"/>
<path d="M282.496 462.409L283.85 461.658L285.22 462.409H286.688V463.257L283.85 464.889L280.995 463.257V462.409H282.496Z" fill="#403531"/>
<path d="M283.85 460.777L286.688 462.409L283.85 464.057L280.995 462.409L283.85 460.777Z" fill="#836E69"/>
<path d="M285.612 464.236L286.983 463.453L288.369 464.236H289.87V465.068L286.983 466.716L284.111 465.068V464.236H285.612Z" fill="#403531"/>
<path d="M286.983 462.57L289.87 464.235L286.983 465.866L284.111 464.235L286.983 462.57Z" fill="#836E69"/>
<path d="M288.728 466.03L290.147 465.23L291.485 466.03H292.953V466.878L290.147 468.559L287.259 466.878V466.03H288.728Z" fill="#403531"/>
<path d="M290.147 464.398L292.953 466.03L290.147 467.678L287.259 466.03L290.147 464.398Z" fill="#836E69"/>
<path d="M291.827 467.809L293.165 467.01L294.552 467.809H296.053V468.674L293.165 470.306L290.343 468.674V467.809H291.827Z" fill="#403531"/>
<path d="M293.165 466.145L296.053 467.809L293.165 469.424L290.343 467.809L293.165 466.145Z" fill="#836E69"/>
<path d="M294.83 469.539L296.2 468.756L297.571 469.539H299.039V470.404L296.2 472.052L293.329 470.404V469.539H294.83Z" fill="#403531"/>
<path d="M296.2 467.875L299.039 469.539L296.2 471.187L293.329 469.539L296.2 467.875Z" fill="#836E69"/>
<path d="M288.287 469.849L290.033 468.854L293.573 470.909L295.89 471.399V472.215L293.035 473.863L287.162 470.485V469.653L288.287 469.849Z" fill="#403531"/>
<path d="M276.264 462.489L277.634 461.689L279.037 462.489H280.473V463.337L277.634 464.985L274.779 463.337V462.489H276.264Z" fill="#403531"/>
<path d="M277.634 460.857L280.473 462.489L277.634 464.137L274.779 462.489L277.634 460.857Z" fill="#836E69"/>
<path d="M279.315 464.253L280.685 463.453L282.04 464.253H283.508V465.085L280.685 466.733L277.83 465.085V464.253H279.315Z" fill="#403531"/>
<path d="M280.685 462.588L283.508 464.252L280.685 465.884L277.83 464.252L280.685 462.588Z" fill="#836E69"/>
<path d="M282.464 466.063L283.818 465.279L285.172 466.063H286.656V466.927L283.818 468.575L280.946 466.927V466.063H282.464Z" fill="#403531"/>
<path d="M283.818 464.398L286.656 466.063L283.818 467.694L280.946 466.063L283.818 464.398Z" fill="#836E69"/>
<path d="M285.563 467.857L286.949 467.074L288.304 467.857H289.788V468.755L286.949 470.386L284.111 468.755V467.857H285.563Z" fill="#403531"/>
<path d="M286.949 466.209L289.788 467.857L286.949 469.489L284.111 467.857L286.949 466.209Z" fill="#836E69"/>
<path d="M295.89 471.399L293.035 472.998L287.162 469.653L290.033 467.973L295.89 471.399Z" fill="#836E69"/>
<path opacity="0.3" d="M269.984 492.675L278.695 487.65L262.234 478.17L253.571 483.146L269.984 492.675Z" fill="black"/>
<path d="M264.942 478.464L262.756 480.079L257.764 478.611L259.689 477.24L264.942 478.464Z" fill="black"/>
<path d="M257.209 478.267L262.234 475.379L267.813 476.505L264.192 478.61L260.554 477.892L258.074 479.262L257.209 478.267Z" fill="#362C29"/>
<path d="M266.867 476.18L266.948 476.539L263.865 478.333L262.739 477.534L266.867 476.18Z" fill="#685750"/>
<path d="M266.867 476.179L263.767 477.973L262.12 477.81L259.265 477.043L262.332 475.281L266.867 476.179Z" fill="#836E69"/>
<path d="M263.767 477.973L263.865 478.332L259.33 477.418L259.265 477.043L263.767 477.973Z" fill="#403531"/>
<path d="M262.936 480.208L261.924 478.414L260.439 477.549L259.412 478.153V479.833L260.439 481.628L261.924 482.46L262.936 481.873V480.208Z" fill="#991F16"/>
<path d="M261.924 478.414L260.439 477.549L261.32 477.043L262.756 477.924L262.087 478.43L261.924 478.414Z" fill="#FA5C52"/>
<path d="M262.936 480.21L261.924 478.415L262.756 477.926L263.768 479.688L263.131 480.308L262.936 480.21Z" fill="#C84030"/>
<path d="M262.936 481.874V480.21L263.768 479.688V481.384L262.936 481.874Z" fill="#BF261B"/>
<path d="M257.209 478.268L262.805 479.426L259.118 481.498L253.571 480.389L257.209 478.268Z" fill="#362C29"/>
<path d="M253.571 480.389L259.118 481.498L268.189 486.736L269.983 489.869V492.153L268.189 491.614L253.571 483.146V480.389Z" fill="#0A0808"/>
<path d="M261.907 479.066L261.973 479.425L258.857 481.188L257.764 480.388L261.907 479.066Z" fill="#685750"/>
<path d="M261.907 479.068L258.775 480.83L257.127 480.7L254.305 479.917L257.388 478.154L261.907 479.068Z" fill="#836E69"/>
<path d="M258.775 480.83L258.856 481.189L254.403 480.308L254.305 479.916L258.775 480.83Z" fill="#403531"/>
<path d="M269.984 489.869L278.695 484.859L276.852 481.727L268.189 486.736L269.984 489.869Z" fill="#574943"/>
<path d="M268.189 486.736L276.852 481.727L267.814 476.506L259.118 481.499L268.189 486.736Z" fill="#574943"/>
<path d="M269.984 492.153L278.695 487.144V484.859L269.984 489.869V492.153Z" fill="#362C29"/>
<path d="M268.727 484.094V483.669L271.517 482.07H272.202L272.691 482.38V482.788L269.967 484.404H269.233L268.727 484.094Z" fill="white"/>
<path d="M358.618 461.283L346.905 457.024L336.007 458.379L326.512 457.024V454.822L330.02 453.81H334.881L332.173 448.703L327.262 446.663L320.737 448.377L319.285 446.663L325.843 441.573L335.289 440.643L350.641 448.523L365.943 452.178L358.618 461.283Z" fill="#F0C6B4"/>
<path d="M356.171 449.617L350.64 448.523L346.872 452.358L346.904 457.024L353.185 459.586L355.698 455.132L356.171 449.617Z" fill="#362C29"/>
<path d="M368.504 450.791L356.35 449.502L352.386 453.532L352.908 460.369L365.323 464.562L368.504 450.791Z" fill="#C8DFE8"/>
<path d="M415.147 463.158L420.661 452.357L419.845 439.516L414.511 434.654L402.194 433.887L395.847 438.504L415.147 463.158Z" fill="#C8DFE8"/>
<path d="M387.69 425.5L392.486 435.371L396.516 439.499L393.122 447.266L373.35 451.541L368.504 445.275L366.808 436.791L363.594 432.81L364.703 425.5L378.162 420.523L387.69 425.5Z" fill="#F0C6B4"/>
<path d="M345.094 519.352L348.145 527.641L357.884 534.478L388.343 532.275L403.857 521.18L402.797 514L347.198 512.744L345.094 519.352Z" fill="#0A0808"/>
<path d="M352.565 461.167L361.098 454.249L368.504 445.275L380.348 445.455L392.633 438.504L392.486 435.371L396.597 436.383L400.17 435.632L410.513 438.52L417.202 454.086L414.641 474.302L402.944 503.28L402.209 517.28L385.471 526.254L364.719 529.419L351.489 523.023L347.198 512.744L349.384 507.212L348.65 493.474L352.565 461.167Z" fill="#C8DFE8"/>
<path d="M391.328 436.513L391.719 440.886L402.927 440.348L408.556 437.998L401.753 436.105L397.005 437.492L391.328 436.513Z" fill="#362C29"/>
<path d="M367.542 480.307L349.058 501.339L348.797 495.807L352.745 484.402L367.542 480.307Z" fill="#A1B4BF"/>
<path d="M355.42 460.826L363.529 463.339L368.896 458.998L377.787 447.136L369.565 447.055L362.86 455.458L355.42 460.826Z" fill="#362C29"/>
<path opacity="0.3" d="M393.987 435.535L395.847 441.083L380.838 450.465L365.029 450.416L366.024 448.898L393.987 435.535Z" fill="black"/>
<path d="M390.528 431.375L390.414 435.47L380.413 441.149L366.04 442.438L365.029 449.307L380.837 449.111L394.835 440.251L393.987 435.536L390.528 431.375Z" fill="#C8DFE8"/>
<path d="M284.666 479.817L272.055 471.627L263.458 470.99L258.841 473.878L256.801 477.729L260.276 487.927L267.422 487.861L278.304 490.847L280.718 489.558L286.053 487.829L284.666 479.817Z" fill="#F0C6B4"/>
<path d="M318.975 494.764L284.666 479.818L280.718 489.559L309.121 512.158L318.975 494.764Z" fill="#F0C6B4"/>
<path d="M291.779 482.674L284.666 479.818L280.93 483.082L280.718 489.559L285.515 493.965L292.22 489.298L291.779 482.674Z" fill="#362C29"/>
<path d="M360.428 460.189L368.504 468.478L367.541 480.308L326.756 514.001L308.011 513.169L285.4 494.601L287.113 485.806L292.105 482.461L319.284 493.687L352.565 461.168L360.428 460.189Z" fill="#C8DFE8"/>
<path d="M353.936 399.329L351.489 411.192L353.186 413.835L352.729 419.317L360.021 434.932L366.09 433.235L367.575 428.585L372.094 425.697L364.116 396.947L353.936 399.329Z" fill="#F0C6B4"/>
<path d="M377.086 389.833L370.56 386.129L371.539 388.74L361.783 389.751L354.034 394.972L350.771 401.613L354.034 400.422L353.903 409.445L358.096 417.489L358.439 422.009H359.793L360.25 416.82L362.958 416.706L366.677 422.009L367.575 428.584L372.812 432.076L382.078 430.591L389.207 425.631L391.328 418.305L390.773 403.571L385.243 393.749L387.217 392.737L381.083 391.252L378.701 388.087L377.086 389.833Z" fill="#211A1A"/>
<path d="M427.871 542.31L433.026 539.324L439.128 516.09L432.113 518.048L427.871 542.31Z" fill="#211A1A"/>
<path d="M433.956 519.074L432.113 518.047L437.268 515.012L439.128 516.089L433.956 519.074Z" fill="#574943"/>
<path d="M427.872 542.309L425.996 541.216L432.114 518.047L433.957 519.075L427.872 542.309Z" fill="#0A0808"/>
<path d="M433.956 519.075L439.128 516.089V465.965L432.113 467.923L433.956 519.075Z" fill="#362C29"/>
<path d="M433.956 468.983L432.113 467.922L437.268 464.92L439.128 465.964L433.956 468.983Z" fill="#574943"/>
<path d="M433.957 519.076L432.848 519.647L432.114 518.048V467.924L433.957 468.984V519.076Z" fill="#0A0808"/>
<path d="M372.714 505.794L363.284 516.171L353.447 507.067L355.943 502.727L372.714 505.794Z" fill="#9D9D9C"/>
<path d="M430.041 467.433L369.352 510.476L355.942 502.725L423.548 463.713L430.041 467.433Z" fill="#B2B2B2"/>
<path d="M368.896 515.959L359.923 545.312L353.446 541.576V507.066L368.896 515.959Z" fill="#706F6F"/>
<path d="M432.554 503.379L430.041 507.686L362.386 546.764L359.923 545.312V510.786L362.386 506.495L430.041 467.434L432.554 468.853V503.379Z" fill="#574943"/>
<path d="M376.58 508.028L367.15 518.405L359.923 510.785L362.387 506.494L376.58 508.028Z" fill="#211A1A"/>
<path d="M433.924 469.669L373.219 512.712L362.386 506.495L430.041 467.434L433.924 469.669Z" fill="#574943"/>
<path d="M372.763 518.211L363.79 547.548L359.923 545.313V510.787L372.763 518.211Z" fill="#0A0808"/>
<path d="M436.404 505.613L433.925 509.921L366.27 548.999L363.79 547.546V513.037L366.27 508.73L433.925 469.668L436.404 471.087V505.613Z" fill="#362C29"/>
<path d="M350.396 587.001L355.567 584.015L361.669 560.797L354.67 562.706L350.396 587.001Z" fill="#211A1A"/>
<path d="M356.546 563.815L354.67 562.706L359.858 559.736L361.669 560.797L356.546 563.815Z" fill="#574943"/>
<path d="M350.395 587L348.552 585.956L354.67 562.705L356.546 563.815L350.395 587Z" fill="#0A0808"/>
<path d="M356.546 563.814L361.669 560.796V510.672L354.67 512.63L356.546 563.814Z" fill="#362C29"/>
<path d="M356.546 513.69L354.67 512.63L359.858 509.611L361.669 510.672L356.546 513.69Z" fill="#574943"/>
<path d="M356.546 563.816L355.42 564.354L354.67 562.706V512.631L356.546 513.691V563.816Z" fill="#0A0808"/>
</g>
<defs>
<clipPath id="clip0_329_806">
<rect width="560" height="667" fill="white" transform="matrix(-1 0 0 1 560 0)"/>
</clipPath>
</defs>
</svg>
