<svg width="339" height="74" viewBox="0 0 339 74" fill="none" xmlns="http://www.w3.org/2000/svg">
<g clip-path="url(#clip0_323_738)">
<path d="M114.94 51.0822H110.171V49.9247C110.171 49.6434 110.205 49.2223 110.273 48.7319C109.183 50.3459 107.481 51.5047 105.233 51.5047C101.793 51.5047 99.2051 48.7319 99.2051 44.1344V33.957H104.007V43.8545C104.007 46.2402 105.472 47.4697 107.072 47.4697C108.503 47.4697 110.069 46.3122 110.172 43.9957V33.9584H114.941V51.0822H114.94Z" fill="#1A4D8F"/>
<path d="M131.778 51.1539C129.734 51.1539 128.338 50.0304 127.589 48.2411C126.636 49.8904 124.626 51.5058 121.662 51.5058C117.984 51.5058 116.11 49.0495 116.11 46.4872C116.11 43.6449 118.358 40.872 122.99 40.872C124.386 40.872 125.748 41.0473 127.009 41.2932V40.7321C127.009 39.0474 125.886 37.9239 124.046 37.9239C122.751 37.9239 121.697 38.5203 121.015 39.6439L117.678 37.0815C117.678 37.0815 119.586 33.5723 124.285 33.5723C128.917 33.5723 131.743 36.4145 131.743 40.5215V45.6801C131.743 46.3119 132.152 46.6978 132.766 46.6978H135.857V51.1553H131.778V51.1539ZM127.009 44.346C126.123 44.1707 125.034 43.9955 124.386 43.9955C122.446 43.9955 120.946 44.6626 120.946 46.066C120.946 47.0143 121.628 47.646 122.888 47.646C124.898 47.6447 126.397 46.2059 127.009 44.346Z" fill="#1A4D8F"/>
<path d="M138.704 51.5061H133.937V34.3796H138.704V35.5371C138.704 35.8183 138.669 36.2395 138.603 36.73C139.693 35.1159 141.361 33.957 143.643 33.957C147.083 33.957 149.671 36.73 149.671 41.3261V51.5034H144.869V41.606C144.869 39.2202 143.405 37.9907 141.804 37.9907C140.373 37.9907 138.773 39.1836 138.704 41.4647V51.5061Z" fill="#1A4D8F"/>
<path d="M152.953 34.3569V28.25H157.72V34.3569H160.07V38.9191H157.72V51.4835H152.953V38.9191H150.636V34.3569H152.953Z" fill="#1A4D8F"/>
<path d="M176.973 51.0822H172.204V49.9247C172.204 49.6434 172.238 49.2223 172.307 48.7319C171.216 50.3459 169.514 51.5047 167.266 51.5047C163.826 51.5047 161.238 48.7319 161.238 44.1344V33.957H166.04V43.8545C166.04 46.2402 167.505 47.4697 169.106 47.4697C170.536 47.4697 172.103 46.3122 172.205 43.9957V33.9584H176.974V51.0822H176.973Z" fill="#1A4D8F"/>
<path d="M178.621 51.5047V34.3782H183.39V35.2558C183.39 35.5724 183.322 36.1335 183.254 36.6593C184.242 35.01 185.842 33.957 187.817 33.957C190.236 33.957 191.7 35.1146 192.483 36.7653C193.676 35.1159 195.515 33.957 197.763 33.957C201.168 33.957 203.246 36.3427 203.246 40.4498V51.5047H198.477V40.8003C198.477 38.9404 197.183 37.9921 195.889 37.9921C194.595 37.9921 193.301 38.9404 193.301 40.9402V51.5034H188.533V40.6944C188.533 38.9391 187.341 38.0967 186.081 38.0967C184.786 38.0967 183.458 39.0097 183.39 40.7637V51.5034H178.621V51.5047Z" fill="#1A4D8F"/>
<path d="M67.9629 36.8444C67.9629 28.9969 74.187 22.5449 81.879 22.5449C89.495 22.5449 95.7576 28.9984 95.7576 36.846C95.7576 40.3511 94.5591 43.5385 92.5489 46.0073L94.8299 48.3574L91.7363 51.5048L89.2626 48.9557C87.0973 50.3498 84.5845 51.1871 81.879 51.1871C74.187 51.184 67.9629 44.7721 67.9629 36.8444ZM85.4362 45.0497L83.1167 42.6194L86.2097 39.4721L88.6834 42.0211C89.5335 40.587 90.0367 38.8337 90.0367 36.8429C90.0367 31.5844 86.5571 27.8804 81.8806 27.8804C77.1634 27.8804 73.6855 31.6245 73.6855 36.8429C73.6855 42.1414 77.165 45.8454 81.8806 45.8454C83.1557 45.847 84.3918 45.5679 85.4362 45.0497Z" fill="#1A4D8F"/>
<path d="M217.809 45.6658L223.266 26.3819H229.379L220.975 51.1633H216.983L217.809 45.6658ZM212.84 26.3819L218.28 45.6658L219.139 51.1633H215.097L206.743 26.3819H212.84ZM234.965 32.7475V51.1633H229.693V32.7475H234.965ZM229.373 27.9819C229.373 27.2103 229.642 26.5805 230.181 26.0926C230.72 25.5933 231.427 25.3438 232.304 25.3438C233.179 25.3438 233.886 25.5933 234.426 26.0926C234.976 26.5805 235.251 27.2103 235.251 27.9819C235.251 28.7421 234.976 29.3718 234.426 29.8711C233.886 30.359 233.179 30.603 232.304 30.603C231.427 30.603 230.72 30.359 230.181 29.8711C229.642 29.3718 229.373 28.7421 229.373 27.9819ZM246.731 46.0402C246.731 45.6998 246.624 45.3991 246.411 45.1382C246.209 44.8772 245.838 44.6389 245.299 44.4233C244.771 44.2077 244.025 43.9921 243.059 43.7766C242.15 43.5836 241.302 43.334 240.516 43.0277C239.73 42.7099 239.045 42.3298 238.461 41.8873C237.877 41.4335 237.423 40.9002 237.097 40.2874C236.771 39.6633 236.608 38.9542 236.608 38.1599C236.608 37.3883 236.771 36.6564 237.097 35.9643C237.434 35.2721 237.916 34.6594 238.545 34.1261C239.186 33.5928 239.96 33.173 240.87 32.8666C241.79 32.5603 242.835 32.4071 244.002 32.4071C245.608 32.4071 246.995 32.6624 248.162 33.173C249.33 33.6722 250.229 34.3758 250.857 35.2835C251.486 36.1799 251.801 37.2068 251.801 38.3641H246.545C246.545 37.8875 246.456 37.4734 246.276 37.1217C246.096 36.7699 245.821 36.4976 245.451 36.3047C245.08 36.1005 244.592 35.9983 243.985 35.9983C243.514 35.9983 243.098 36.0835 242.739 36.2536C242.391 36.4125 242.116 36.6338 241.914 36.9174C241.723 37.2011 241.627 37.5302 241.627 37.9046C241.627 38.1656 241.684 38.4038 241.796 38.6194C241.919 38.8237 242.105 39.0166 242.352 39.1981C242.61 39.3683 242.942 39.5215 243.345 39.6577C243.761 39.7938 244.266 39.9243 244.862 40.0491C246.13 40.2874 247.287 40.6221 248.331 41.0533C249.387 41.4845 250.229 42.0802 250.857 42.8404C251.497 43.6007 251.817 44.6049 251.817 45.853C251.817 46.67 251.632 47.4188 251.262 48.0997C250.902 48.7805 250.38 49.3761 249.695 49.8868C249.01 50.3974 248.191 50.7945 247.236 51.0782C246.282 51.3619 245.204 51.5037 244.002 51.5037C242.285 51.5037 240.83 51.1916 239.64 50.5675C238.45 49.9435 237.552 49.1606 236.945 48.2188C236.35 47.2657 236.052 46.2899 236.052 45.2913H240.987C241.01 45.9041 241.162 46.4033 241.442 46.7891C241.734 47.1749 242.11 47.4586 242.571 47.6401C243.031 47.8103 243.548 47.8954 244.12 47.8954C244.693 47.8954 245.17 47.816 245.552 47.6571C245.934 47.4983 246.226 47.2827 246.428 47.0104C246.63 46.7267 246.731 46.4033 246.731 46.0402ZM258.564 32.7475V51.1633H253.293V32.7475H258.564ZM252.973 27.9819C252.973 27.2103 253.242 26.5805 253.781 26.0926C254.32 25.5933 255.028 25.3438 255.903 25.3438C256.779 25.3438 257.487 25.5933 258.026 26.0926C258.576 26.5805 258.851 27.2103 258.851 27.9819C258.851 28.7421 258.576 29.3718 258.026 29.8711C257.487 30.359 256.779 30.603 255.903 30.603C255.028 30.603 254.32 30.359 253.781 29.8711C253.242 29.3718 252.973 28.7421 252.973 27.9819ZM259.871 42.1426V41.7852C259.871 40.4349 260.063 39.1924 260.444 38.0578C260.826 36.9118 261.388 35.9189 262.129 35.0793C262.87 34.2396 263.779 33.5872 264.857 33.1219C265.935 32.6454 267.17 32.4071 268.562 32.4071C269.977 32.4071 271.224 32.6454 272.301 33.1219C273.391 33.5872 274.306 34.2396 275.047 35.0793C275.788 35.9189 276.349 36.9118 276.731 38.0578C277.113 39.1924 277.303 40.4349 277.303 41.7852V42.1426C277.303 43.4815 277.113 44.724 276.731 45.87C276.349 47.0047 275.788 47.9975 275.047 48.8485C274.306 49.6882 273.396 50.3406 272.318 50.8058C271.241 51.2711 270 51.5037 268.596 51.5037C267.203 51.5037 265.963 51.2711 264.874 50.8058C263.785 50.3406 262.87 49.6882 262.129 48.8485C261.388 47.9975 260.826 47.0047 260.444 45.87C260.063 44.724 259.871 43.4815 259.871 42.1426ZM265.143 41.7852V42.1426C265.143 42.8688 265.199 43.5496 265.312 44.185C265.435 44.8205 265.631 45.3764 265.901 45.853C266.17 46.3296 266.524 46.704 266.962 46.9763C267.411 47.2373 267.956 47.3678 268.596 47.3678C269.236 47.3678 269.775 47.2373 270.213 46.9763C270.651 46.704 271.004 46.3296 271.274 45.853C271.543 45.3764 271.735 44.8205 271.847 44.185C271.97 43.5496 272.032 42.8688 272.032 42.1426V41.7852C272.032 41.0703 271.97 40.4009 271.847 39.7768C271.735 39.1414 271.543 38.5797 271.274 38.0918C271.004 37.6039 270.645 37.2238 270.196 36.9514C269.758 36.6791 269.214 36.543 268.562 36.543C267.934 36.543 267.4 36.6791 266.962 36.9514C266.524 37.2238 266.17 37.6039 265.901 38.0918C265.631 38.5797 265.435 39.1414 265.312 39.7768C265.199 40.4009 265.143 41.0703 265.143 41.7852ZM283.495 36.6791V51.1633H278.223V32.7475H283.175L283.495 36.6791ZM282.805 41.3086L281.491 41.3427C281.491 39.9583 281.659 38.7159 281.996 37.6152C282.333 36.5146 282.81 35.5785 283.428 34.8069C284.056 34.024 284.803 33.4283 285.667 33.0198C286.544 32.6113 287.509 32.4071 288.565 32.4071C289.418 32.4071 290.199 32.5319 290.906 32.7815C291.613 33.0311 292.219 33.434 292.725 33.99C293.241 34.5346 293.634 35.2608 293.904 36.1685C294.173 37.0649 294.308 38.1713 294.308 39.4875V51.1633H289.019V39.4705C289.019 38.6989 288.913 38.1032 288.699 37.6833C288.486 37.2635 288.172 36.9685 287.756 36.7983C287.352 36.6281 286.858 36.543 286.274 36.543C285.657 36.543 285.129 36.6678 284.691 36.9174C284.253 37.1557 283.893 37.4904 283.613 37.9216C283.332 38.3528 283.124 38.8577 282.99 39.4364C282.866 40.0151 282.805 40.6392 282.805 41.3086Z" fill="#1A4D8F"/>
<path d="M57.9119 33.6055H50.458V35.3437H57.9119V33.6055Z" fill="#1A4D8F"/>
<path d="M38.571 17.2661L31.8213 13.3281L30.9612 14.8335L37.7109 18.7715L38.571 17.2661Z" fill="#1A4D8F"/>
<path d="M7.45393 31H0V32.7383H7.45393V31Z" fill="#1A4D8F"/>
<path d="M57.9111 41.1379V33.6055H56.191V41.1379H57.9111Z" fill="#1A4D8F"/>
<path d="M57.9111 52.4388V47.5137H56.191V52.4388H57.9111Z" fill="#1A4D8F"/>
<path d="M23.852 62.728L27.6914 56.0078L26.2017 55.1387L22.3623 61.8589L23.852 62.728Z" fill="#1A4D8F"/>
<path d="M52.1777 30.9999V24.916H50.4576V30.9999H52.1777Z" fill="#1A4D8F"/>
<path d="M57.9111 30.9986V22.0176H56.191V30.9986H57.9111Z" fill="#1A4D8F"/>
<path d="M63.3584 55.3343V18.541H61.6383V55.3343H63.3584Z" fill="#1A4D8F"/>
<path d="M52.1098 25.0018L45.0098 20.8594L44.1497 22.3648L51.2497 26.5072L52.1098 25.0018Z" fill="#1A4D8F"/>
<path d="M32.8604 59.3975L28.3828 56.7852L27.5227 58.2905L32.0003 60.9029L32.8604 59.3975Z" fill="#1A4D8F"/>
<path d="M7.74023 24.6256V21.7285H6.0201V24.6256H7.74023Z" fill="#1A4D8F"/>
<path d="M32.5609 66.1085L25.5156 61.998L24.6556 63.5034L31.7009 67.6139L32.5609 66.1085Z" fill="#1A4D8F"/>
<path d="M32.5384 72.4943L21.501 66.0547L20.6409 67.5601L31.6783 73.9997L32.5384 72.4943Z" fill="#1A4D8F"/>
<path d="M57.0364 50.8952L30.8926 66.1484L31.7526 67.6538L57.8964 52.4006L57.0364 50.8952Z" fill="#1A4D8F"/>
<path d="M62.5534 53.8862L30.9141 72.3457L31.7741 73.8511L63.4134 55.3916L62.5534 53.8862Z" fill="#1A4D8F"/>
<path d="M27.5077 55.9129L12.5859 47.207L11.7259 48.7124L26.6477 57.4183L27.5077 55.9129Z" fill="#1A4D8F"/>
<path d="M24.5661 61.474L6.59375 50.9883L5.73368 52.4937L23.7061 62.9794L24.5661 61.474Z" fill="#1A4D8F"/>
<path d="M14.9201 62.3787L0.860352 54.1758L0.000281936 55.6812L14.06 63.8841L14.9201 62.3787Z" fill="#1A4D8F"/>
<path d="M52.1777 48.9621V35.3457H50.4576V48.9621H52.1777Z" fill="#1A4D8F"/>
<path d="M32.1684 60.7094L52.208 49.0176L51.3479 47.5122L31.3084 59.204L32.1684 60.7094Z" fill="#1A4D8F"/>
<path d="M13.4746 48.6723L13.4746 24.916H11.7545L11.7545 48.6723H13.4746Z" fill="#1A4D8F"/>
<path d="M7.4541 52.4386L7.4541 31H5.73396L5.73396 52.4386H7.4541Z" fill="#1A4D8F"/>
<path d="M1.7207 55.6254L1.7207 31H0.000564098L0.000564098 55.6254H1.7207Z" fill="#1A4D8F"/>
<path d="M2.00684 29.8398L2.00684 18.541H0.286698L0.286698 29.8398H2.00684Z" fill="#1A4D8F"/>
<path d="M12.6147 26.5238L32.6543 14.832L31.7942 13.3266L11.7546 25.0184L12.6147 26.5238Z" fill="#1A4D8F"/>
<path d="M6.87168 23.2196L32.6934 8.1543L31.8333 6.64892L6.01161 21.7142L6.87168 23.2196Z" fill="#1A4D8F"/>
<path d="M20.1903 8.96276L32.8174 1.5957L31.9573 0.0903216L19.3303 7.45738L20.1903 8.96276Z" fill="#1A4D8F"/>
<path d="M1.10835 19.9772L13.8975 12.5156L13.0374 11.0102L0.248285 18.4718L1.10835 19.9772Z" fill="#1A4D8F"/>
<path d="M30.9618 1.5065L62.5791 19.9531L63.4392 18.4477L31.8218 0.00111521L30.9618 1.5065Z" fill="#1A4D8F"/>
<path d="M30.9614 8.16859L57.0986 23.418L57.9587 21.9126L31.8214 6.66321L30.9614 8.16859Z" fill="#1A4D8F"/>
<path d="M20.355 64.607C20.355 66.3668 18.9431 67.7936 17.2014 67.7936C15.4598 67.7936 14.0479 66.3668 14.0479 64.607C14.0479 62.8467 15.4598 61.4199 17.2014 61.4199C18.9431 61.4199 20.355 62.8467 20.355 64.607ZM15.7319 64.607C15.7319 65.4271 16.3899 66.092 17.2014 66.092C18.013 66.092 18.671 65.4271 18.671 64.607C18.671 63.7864 18.013 63.1215 17.2014 63.1215C16.3899 63.1215 15.7319 63.7864 15.7319 64.607Z" fill="#1A4D8F"/>
<path d="M60.2054 45.4857C60.2054 47.2457 58.7934 48.6725 57.052 48.6725C55.3101 48.6725 53.8984 47.2457 53.8984 45.4857C53.8984 43.7256 55.3101 42.2988 57.052 42.2988C58.7934 42.2988 60.2054 43.7256 60.2054 45.4857ZM55.5826 45.4857C55.5826 46.3058 56.2405 46.9706 57.052 46.9706C57.8636 46.9706 58.5215 46.3058 58.5215 45.4857C58.5215 44.6655 57.8636 44.0006 57.052 44.0006C56.2405 44.0006 55.5826 44.6655 55.5826 45.4857Z" fill="#1A4D8F"/>
<path d="M45.2964 19.9896C45.2964 21.7496 43.8845 23.1764 42.1428 23.1764C40.4012 23.1764 38.9893 21.7496 38.9893 19.9896C38.9893 18.2295 40.4012 16.8027 42.1428 16.8027C43.8845 16.8027 45.2964 18.2295 45.2964 19.9896ZM40.6733 19.9896C40.6733 20.8097 41.3312 21.4746 42.1428 21.4746C42.9544 21.4746 43.6124 20.8097 43.6124 19.9896C43.6124 19.1694 42.9544 18.5046 42.1428 18.5046C41.3312 18.5046 40.6733 19.1694 40.6733 19.9896Z" fill="#1A4D8F"/>
<path d="M20.355 9.55987C20.355 11.3199 18.9431 12.7467 17.2014 12.7467C15.4598 12.7467 14.0479 11.3199 14.0479 9.55987C14.0479 7.79984 15.4598 6.37305 17.2014 6.37305C18.9431 6.37305 20.355 7.79984 20.355 9.55987ZM15.7319 9.55987C15.7319 10.38 16.3899 11.0449 17.2014 11.0449C18.013 11.0449 18.671 10.38 18.671 9.55987C18.671 8.73973 18.013 8.07488 17.2014 8.07488C16.3899 8.07488 15.7319 8.73973 15.7319 9.55987Z" fill="#1A4D8F"/>
<path d="M9.74763 26.9427C9.74763 28.7027 8.33571 30.1295 6.59403 30.1295C4.85234 30.1295 3.44043 28.7027 3.44043 26.9427C3.44043 25.1826 4.85234 23.7559 6.59403 23.7559C8.33571 23.7559 9.74763 25.1826 9.74763 26.9427ZM5.12449 26.9427C5.12449 27.7628 5.78244 28.4277 6.59403 28.4277C7.40562 28.4277 8.06354 27.7628 8.06354 26.9427C8.06354 26.1225 7.40562 25.4576 6.59403 25.4576C5.78244 25.4576 5.12449 26.1225 5.12449 26.9427Z" fill="#1A4D8F"/>
<path fill-rule="evenodd" clip-rule="evenodd" d="M31.8679 22.854C34.0044 22.8476 36.0128 23.0959 37.968 23.5658C39.9216 24.0352 41.8254 24.7262 43.7533 25.6056L43.9772 25.7078L43.9781 25.9586C43.9803 26.6323 43.9835 27.3088 43.9873 27.9868C43.9909 28.6635 43.9951 29.34 43.9997 30.0166L44.0012 30.0184H43.9997C44.0479 37.2169 44.071 40.7043 42.9324 43.3906C41.5516 46.6476 35.0824 51.5977 31.8567 53.8606L31.8481 53.8544V51.3477C32.36 50.9405 32.9342 50.5014 33.5443 50.0352C34.8906 49.0062 36.4127 47.8426 37.7557 46.6483C37.7631 46.6423 37.7703 46.6365 37.7773 46.6301C37.8905 46.5292 38.016 46.4156 38.1545 46.2881C38.2696 46.1823 38.3912 46.0682 38.5198 45.9455L38.5411 45.9251L38.5431 45.9233C38.584 45.8843 38.6246 45.8451 38.6647 45.8061L38.6697 45.8013C38.7098 45.7623 38.7496 45.7235 38.789 45.6845L38.7906 45.6829C39.267 45.2135 39.7019 44.7441 40.0738 44.2806C40.529 43.713 40.8899 43.1549 41.1183 42.6175L41.1176 42.6171L41.1204 42.6107C41.6075 41.4613 41.8467 40.0591 41.9589 38.0906C41.9744 37.8209 41.9874 37.5411 41.9982 37.2502C42.6597 36.4293 43.0462 35.5497 43.1574 34.6116C43.2982 33.424 42.9921 32.1643 42.2388 30.8327C42.291 30.7583 42.3312 30.6776 42.3597 30.5901C42.4394 30.3461 42.4129 30.0946 42.3041 29.8148C42.2166 29.5898 42.1243 29.3787 42.0274 29.1812C42.0229 28.4902 42.0186 27.7657 42.0153 27.004C40.359 26.2899 38.7038 25.7548 37.0493 25.3954C35.3187 25.0194 33.5919 24.8357 31.869 24.8404H31.8528H31.8477V22.8535H31.8512H31.8674L31.8679 22.854Z" fill="#5D6770"/>
<path fill-rule="evenodd" clip-rule="evenodd" d="M31.8484 53.854C28.4333 51.4131 22.4103 47.417 20.8597 43.759C20.2774 42.3853 19.9846 40.7957 19.8437 38.6559C19.9884 38.824 20.1529 38.9918 20.3394 39.157C20.4455 39.262 20.5959 39.3199 20.7552 39.3015C20.8555 39.2897 20.9722 39.2682 21.1109 39.2364L21.1457 39.2285C21.2466 39.894 21.4448 40.5505 21.7356 41.1839C21.9636 41.6803 22.2176 42.1283 22.4958 42.5257C22.5508 42.6815 22.6092 42.8327 22.6716 42.9796C23.7695 45.5698 27.4753 48.2177 30.378 50.2919C30.8927 50.6597 31.3821 51.0094 31.8442 51.3505L31.8482 51.3473V53.854H31.8484ZM31.8484 24.8404C30.1324 24.8468 28.4104 25.0416 26.6821 25.4205C25.0287 25.7831 23.3749 26.3145 21.7203 27.0108C21.7163 27.9744 21.7107 28.8796 21.7053 29.7345L21.7048 29.7928C21.6952 31.3675 21.6864 32.7684 21.6898 34.0233L20.6519 34.4383V34.439C20.2864 34.5655 19.9783 34.72 19.7279 34.9022C19.716 33.4206 19.7265 31.7314 19.7384 29.7848C19.7422 29.146 19.7461 28.5072 19.7494 27.8685C19.7528 27.2276 19.7555 26.5891 19.7577 25.9534L19.7586 25.6999L19.9857 25.599C21.9104 24.7436 23.8149 24.0613 25.7674 23.5905C27.7195 23.12 29.7234 22.8613 31.8482 22.8535V24.8404H31.8484Z" fill="#5D6770"/>
<path fill-rule="evenodd" clip-rule="evenodd" d="M21.4058 38.6309C21.0933 38.7164 20.8716 38.7695 20.6981 38.7896C19.7046 37.9184 19.4013 36.9839 19.4363 36.3351C19.4706 35.6984 19.9416 35.226 20.841 34.9203C31.0661 30.8308 36.8576 28.5142 38.2159 27.9711C38.8189 27.7301 39.7091 27.5067 40.2869 27.8577C40.9056 28.2339 41.4201 28.9491 41.8299 30.0038C41.96 30.3388 41.9075 30.5614 41.5711 30.7338C39.9678 31.468 38.8281 31.9778 38.1524 32.2629C37.302 32.6216 37.308 32.8538 36.8496 33.5879C36.2571 34.5364 35.9024 35.0432 35.7852 35.1081C31.358 37.0417 28.7485 38.1485 27.9561 38.4286C27.7335 38.5209 27.4851 38.5218 27.2591 38.4418C27.0289 38.3601 26.7926 38.1957 26.55 37.9485C25.4774 36.5732 24.0834 34.3362 22.1556 34.7906C22.7767 34.8346 23.3536 35.0133 23.8864 35.3267C22.9998 35.7782 22.4271 36.7603 22.4271 38.2989C22.4271 40.6654 24.3415 44.0825 27.0836 43.2617C28.8557 42.7311 29.1127 40.2829 28.623 38.5472L35.949 35.3494C36.4436 34.7949 36.8451 34.2385 37.137 33.7121C37.4783 33.0969 37.584 32.8143 38.2462 32.5389C40.593 31.5628 41.7507 31.0222 41.7507 31.0222C43.2236 33.5579 42.9537 35.7385 40.957 37.6207L35.7177 40.1774L36.1985 41.1185C36.2996 41.316 36.2221 41.5612 36.0267 41.6632L35.1116 42.1408L35.5292 42.8649C35.6699 42.7687 35.8353 42.6952 36.0276 42.6521L40.6498 42.4149C40.2295 43.4032 39.3078 44.486 38.1713 45.5708C37.9361 45.7953 37.6917 46.0198 37.4408 46.2432C36.8172 46.0915 36.2931 45.9736 36.0278 45.9434C35.3689 45.7493 34.9653 45.0522 34.9119 44.3454L33.9804 42.7308L32.5992 43.4515C32.4037 43.5535 32.1612 43.4753 32.0601 43.2778L31.522 42.2247L28.4132 43.7417C25.7478 44.9502 23.5244 43.8526 22.2002 40.9688C21.3906 39.2055 21.3522 37.2642 22.1986 35.4979C21.5093 36.4862 21.2878 37.5519 21.4058 38.6309ZM25.5954 38.1255C25.9879 37.9451 26.5072 38.2467 26.7554 38.7987C27.0035 39.3506 26.8866 39.9443 26.4941 40.1246C26.1017 40.3049 25.5824 40.0033 25.334 39.4513C25.0858 38.8991 25.2027 38.3057 25.5952 38.1255H25.5954ZM25.0459 36.9032C25.1542 36.8535 25.2671 36.8202 25.3825 36.8025C25.5959 37.0673 25.7987 37.3367 25.9915 37.5925H25.9919L26.0215 37.6315C25.8048 37.5696 25.5862 37.5769 25.3894 37.6671C24.8172 37.9299 24.6467 38.7955 25.0086 39.6008C25.3706 40.4058 26.1279 40.8455 26.7004 40.5826C27.2726 40.3198 27.4431 39.4543 27.0812 38.6493C27.0754 38.6361 27.0693 38.6229 27.063 38.61C27.1036 38.6286 27.144 38.6449 27.1844 38.6595C27.3235 38.7089 27.47 38.7329 27.6163 38.7302C27.6608 38.7293 27.7052 38.7261 27.7494 38.7203C28.1262 39.8486 27.8405 40.9813 27.0439 41.3471C26.1716 41.7476 25.0171 41.0774 24.4653 39.8504C23.9135 38.6234 24.1736 37.3039 25.0459 36.9032Z" fill="#5D6770"/>
<path d="M318.996 51.0267L299.481 22.8848H308.019L327.533 51.0267H318.996Z" fill="#5D6770"/>
<path d="M308.141 38.4952L299.481 51.0256H308.222L312.491 44.8631L308.141 38.4952Z" fill="#1A4D8F"/>
<path d="M336.884 9.32617H328.346L314.524 29.0461L318.996 35.2086L336.884 9.32617Z" fill="#1A4D8F"/>
</g>
<defs>
<clipPath id="clip0_323_738">
<rect width="339" height="74" fill="white"/>
</clipPath>
</defs>
</svg>
