<svg width="50" height="61" viewBox="0 0 50 61" fill="none" xmlns="http://www.w3.org/2000/svg">
<path fill-rule="evenodd" clip-rule="evenodd" d="M25.0231 0.000967591C29.3223 -0.0114999 33.3637 0.474944 37.298 1.3956C41.2293 2.31529 45.0603 3.66909 48.9396 5.39207L49.3902 5.59241L49.392 6.08379C49.3965 7.40384 49.4029 8.72926 49.4105 10.0577C49.4178 11.3834 49.4263 12.7089 49.4354 14.0346L49.4386 14.0381H49.4354C49.5325 28.1421 49.5789 34.975 47.2878 40.2382C44.5094 46.6196 31.4916 56.3183 25.0006 60.752L24.9833 60.7399V55.8286C26.0134 55.0307 27.1688 54.1705 28.3966 53.257C31.1056 51.2408 34.1684 48.9611 36.871 46.621C36.8858 46.6094 36.9003 46.5979 36.9143 46.5854C37.1423 46.3876 37.3947 46.1651 37.6734 45.9154C37.9049 45.708 38.1497 45.4844 38.4085 45.2441L38.4513 45.2041L38.4555 45.2005C38.5376 45.1241 38.6193 45.0473 38.7002 44.9709L38.7101 44.9615C38.7909 44.8851 38.8709 44.8091 38.9503 44.7327L38.9535 44.7296C39.9121 43.8099 40.7873 42.8902 41.5355 41.982C42.4516 40.8699 43.1778 39.7765 43.6375 38.7235L43.636 38.7226L43.6415 38.7102C44.6219 36.4581 45.1031 33.7109 45.3289 29.854C45.3602 29.3256 45.3863 28.7774 45.408 28.2074C46.7391 26.599 47.5167 24.8756 47.7407 23.0375C48.0238 20.7107 47.4079 18.2426 45.892 15.6337C45.9972 15.4879 46.078 15.3297 46.1354 15.1583C46.2957 14.6802 46.2424 14.1874 46.0234 13.6392C45.8473 13.1984 45.6618 12.7848 45.4667 12.3978C45.4576 11.044 45.4491 9.62445 45.4423 8.13211C42.1094 6.73296 38.7787 5.68441 35.4494 4.98021C31.9671 4.24356 28.4924 3.88372 25.0254 3.89296H24.9928H24.9824V0H24.9896H25.0222L25.0231 0.000967591Z" fill="#0045F6"/>
<path fill-rule="evenodd" clip-rule="evenodd" d="M24.9852 60.7391C18.113 55.9566 5.99329 48.1272 2.87307 40.9601C1.70133 38.2685 1.11202 35.154 0.828457 30.9615C1.11967 31.2908 1.45064 31.6196 1.82597 31.9435C2.03952 32.1492 2.34209 32.2625 2.66269 32.2266C2.86455 32.2034 3.09929 32.1612 3.37838 32.099L3.4484 32.0834C3.65157 33.3874 4.05027 34.6737 4.63553 35.9147C5.09431 36.8872 5.60541 37.7651 6.16533 38.5436C6.27599 38.8488 6.39341 39.1451 6.51892 39.4331C8.72836 44.5079 16.1853 49.6959 22.0262 53.76C23.0621 54.4806 24.0469 55.1657 24.9766 55.834L24.9848 55.8278L24.9852 60.7391ZM24.9852 3.89296C21.5321 3.90543 18.067 4.28708 14.5891 5.02954C11.262 5.73997 7.93413 6.78101 4.60484 8.14544C4.59665 10.0333 4.5854 11.8069 4.57458 13.4819L4.5736 13.5961C4.55427 16.6813 4.53657 19.4262 4.54334 21.885L2.45493 22.6981V22.6994C1.71936 22.9473 1.09935 23.2499 0.595465 23.607C0.571543 20.704 0.592734 17.3944 0.616656 13.5805C0.624302 12.3289 0.632058 11.0773 0.63883 9.82575C0.645603 8.57019 0.650954 7.31904 0.655541 6.07358L0.657291 5.57693L1.11432 5.37917C4.98726 3.70326 8.81957 2.36634 12.7486 1.44397C16.6767 0.522128 20.709 0.0151544 24.9848 0L24.9852 3.89296Z" fill="#0045F6"/>
<path fill-rule="evenodd" clip-rule="evenodd" d="M3.96865 30.9057C3.33969 31.0732 2.89359 31.1772 2.54448 31.2168C0.545417 29.5097 -0.0650819 27.6788 0.00537299 26.4077C0.0745171 25.16 1.02233 24.2346 2.83209 23.6356C23.4075 15.6231 35.0617 11.0842 37.795 10.02C39.0083 9.54778 40.7996 9.11013 41.9623 9.79788C43.2072 10.535 44.2426 11.9363 45.0672 14.0027C45.3291 14.659 45.2234 15.0953 44.5465 15.433C41.3202 16.8715 39.0268 17.8703 37.6672 18.4289C35.9558 19.1317 35.968 19.5867 35.0455 21.0249C33.8533 22.8834 33.1395 23.8764 32.9038 24.0035C23.9951 27.7921 18.744 29.9607 17.1495 30.5094C16.7015 30.6902 16.2017 30.6921 15.747 30.5351C15.2837 30.3752 14.8082 30.0531 14.3201 29.5688C12.1616 26.8741 9.35665 22.4911 5.47737 23.3815C6.72721 23.4677 7.88813 23.8177 8.96013 24.4318C7.17604 25.3164 6.02375 27.2407 6.02375 30.2553C6.02375 34.892 9.87594 41.5871 15.3938 39.9788C18.9598 38.9392 19.4768 34.1424 18.4915 30.7418L33.2333 24.4763C34.2285 23.3899 35.0364 22.2996 35.6239 21.2684C36.3107 20.063 36.5234 19.5094 37.8559 18.9696C42.5783 17.0573 44.9079 15.9981 44.9079 15.9981C47.8718 20.9662 47.3286 25.2386 43.3107 28.9264L32.7678 33.9358L33.7355 35.7797C33.9387 36.1667 33.7829 36.647 33.3896 36.8469L31.5482 37.7826L32.3885 39.2013C32.6716 39.0129 33.0045 38.8689 33.3914 38.7845L42.6925 38.3198C41.8467 40.256 39.9922 42.3776 37.7051 44.5031C37.2319 44.943 36.7401 45.3828 36.2352 45.8205C34.9804 45.5232 33.9256 45.2922 33.3918 45.2331C32.0661 44.8527 31.2538 43.487 31.1463 42.1021L29.2719 38.9386L26.4926 40.3507C26.0992 40.5506 25.6112 40.3973 25.4079 40.0103L24.3251 37.947L18.0694 40.9193C12.7058 43.2871 8.23177 41.1367 5.56716 35.4864C3.93796 32.0316 3.86073 28.2279 5.56399 24.7672C4.17685 26.7035 3.73118 28.7917 3.96865 30.9057ZM12.3992 29.9154C13.189 29.5621 14.2339 30.153 14.7333 31.2345C15.2327 32.3159 14.9974 33.4791 14.2077 33.8323C13.4179 34.1855 12.373 33.5946 11.8731 32.5132C11.3737 31.4313 11.6089 30.2686 12.3988 29.9154H12.3992ZM11.2933 27.5206C11.5114 27.4233 11.7386 27.358 11.9707 27.3234C12.4001 27.8423 12.8083 28.3701 13.1962 28.8713H13.197L13.2567 28.9477C12.8205 28.8263 12.3806 28.8406 11.9847 29.0174C10.8331 29.5324 10.49 31.2283 11.2184 32.806C11.9468 34.3833 13.4707 35.2447 14.6226 34.7298C15.7741 34.2149 16.1173 32.519 15.3889 30.9417C15.3772 30.9159 15.365 30.8901 15.3523 30.8649C15.434 30.9013 15.5154 30.9332 15.5967 30.9617C15.8766 31.0586 16.1714 31.1056 16.4658 31.1004C16.5553 31.0985 16.6446 31.0923 16.7337 31.0808C17.4917 33.2916 16.9169 35.5109 15.314 36.2276C13.5587 37.0122 11.2356 35.6992 10.1251 33.2952C9.01475 30.8911 9.53808 28.3057 11.2933 27.5206Z" fill="#0045F6"/>
</svg>
